<?xml version="1.0" standalone="no"?>
<!DOCTYPE svg PUBLIC "-//W3C//DTD SVG 1.1//EN" "http://www.w3.org/Graphics/SVG/1.1/DTD/svg11.dtd" >
<svg xmlns="http://www.w3.org/2000/svg">
<metadata></metadata>
<defs>
<font id="pluto_sanslight_italic" horiz-adv-x="1331" >
<font-face units-per-em="2048" ascent="1536" descent="-512" />
<missing-glyph horiz-adv-x="491" />
<glyph horiz-adv-x="0" />
<glyph horiz-adv-x="0" />
<glyph unicode="&#xd;" horiz-adv-x="2048" />
<glyph unicode=" "  horiz-adv-x="491" />
<glyph unicode="&#x09;" horiz-adv-x="491" />
<glyph unicode="&#xa0;" horiz-adv-x="491" />
<glyph unicode="!" horiz-adv-x="563" d="M80 63q0 67 34.5 105.5t96.5 38.5q45 0 69.5 -24t24.5 -66q0 -66 -35 -103t-98 -37q-44 0 -68 22.5t-24 63.5zM195 416l155 975h142l-191 -975h-106z" />
<glyph unicode="&#x22;" horiz-adv-x="866" d="M227 901l82 492h115l-92 -492h-105zM635 901l80 492h114l-90 -492h-104z" />
<glyph unicode="#" horiz-adv-x="1392" d="M43 330l20 110h209l220 521h-175l21 110h201l135 322h114l-2 -13l-129 -309h406l135 322h117l-2 -13l-129 -309h200l-20 -110h-227l-217 -521h188l-21 -110h-215l-137 -330h-117l3 12l133 318h-408l-137 -330h-117l2 12l133 318h-184zM393 440h406l217 521h-406z" />
<glyph unicode="$" horiz-adv-x="1234" d="M49 102l51 131q65 -46 168.5 -83.5t216.5 -40.5l97 538l-152 41q-120 33 -186 108.5t-66 184.5q0 80 35 153.5t100.5 133t170 97.5t233.5 44l28 166h91l-31 -166q117 -4 227 -35t182 -76l-59 -129q-66 43 -168 75t-205 36l-90 -518l88 -23q154 -43 233 -116t79 -189 q0 -187 -151 -310.5t-386 -141.5l-43 -246h-92l43 244q-124 4 -238 41t-176 81zM326 997q0 -135 182 -184l98 -27l88 494q-177 -13 -272.5 -93.5t-95.5 -189.5zM578 111q162 15 263 97t101 204q0 144 -240 204l-34 9z" />
<glyph unicode="%" horiz-adv-x="1695" d="M164 1006q0 169 118 287t285 118q133 0 216 -85.5t83 -215.5q0 -168 -119 -284.5t-288 -116.5q-131 0 -213 84t-82 213zM276 1016q0 -87 53 -144t142 -57q119 0 201 82.5t82 202.5q0 89 -53.5 147t-143.5 58q-117 0 -199 -84t-82 -205zM319 0l3 12l958 1381h127l-2 -13 l-956 -1380h-130zM860 276q0 170 119 289t287 119q132 0 215.5 -86t83.5 -215q0 -169 -119 -286t-289 -117q-132 0 -214.5 84t-82.5 212zM975 287q0 -87 52.5 -144t141.5 -57q117 0 200 83t83 202q0 90 -53.5 147t-143.5 57q-117 0 -198.5 -83.5t-81.5 -204.5z" />
<glyph unicode="&#x26;" horiz-adv-x="1449" d="M90 303q0 72 23.5 133.5t59 104t92 80t107.5 61.5t120 49q-67 80 -105.5 152t-38.5 149q0 167 122.5 274t328.5 107q153 0 253.5 -84t100.5 -209q0 -79 -26 -143.5t-75 -111t-106.5 -79.5t-134.5 -61l-104 -39l292 -340q171 177 277 432l108 -69q-125 -277 -305 -457 l199 -232l-2 -20h-170l-133 158q-228 -176 -490 -176q-179 0 -286 87.5t-107 233.5zM233 324q0 -99 74.5 -159.5t200.5 -60.5q198 0 387 146l-324 387q-58 -21 -99 -38.5t-90 -46t-78.5 -59t-50 -74.5t-20.5 -95zM485 1047q0 -35 12 -71t40 -76.5t43 -59.5t49 -60l145 51 q238 84 238 269q0 81 -63.5 135.5t-164.5 54.5q-142 0 -220.5 -69t-78.5 -174z" />
<glyph unicode="'" horiz-adv-x="458" d="M227 901l82 492h115l-92 -492h-105z" />
<glyph unicode="(" horiz-adv-x="602" d="M96 274q0 184 37.5 360t91.5 302t125 239t125.5 177.5t106.5 111.5l75 -63q-436 -496 -436 -1125q0 -194 40 -362.5t87 -255.5l-94 -53q-56 78 -107 262.5t-51 406.5z" />
<glyph unicode=")" horiz-adv-x="604" d="M-78 -330q434 487 434 1125q0 195 -39 362.5t-86 255.5l95 51q56 -79 106.5 -262.5t50.5 -404.5q0 -184 -38 -360t-91.5 -302t-125 -240t-125 -177.5t-105.5 -112.5z" />
<glyph unicode="*" horiz-adv-x="980" d="M195 1057l49 108l274 -88l49 316h119l-63 -316l307 90l10 -110l-305 -78l117 -266l-97 -60l-108 271l-201 -271l-84 60l205 268z" />
<glyph unicode="+" horiz-adv-x="1136" d="M106 561l21 115h395l74 411h113l-72 -411h397l-20 -115h-398l-71 -409h-115l74 409h-398z" />
<glyph unicode="," horiz-adv-x="536" d="M6 -313l146 288q-41 4 -62.5 28t-21.5 58q0 65 35 102.5t98 37.5q46 0 71 -27t25 -70q0 -76 -74.5 -220t-138.5 -232z" />
<glyph unicode="-" horiz-adv-x="1079" d="M162 561l20 117h740l-21 -117h-739z" />
<glyph unicode="." horiz-adv-x="536" d="M70 63q0 67 35 105.5t98 38.5q44 0 69 -24t25 -66q0 -66 -36 -103t-99 -37q-44 0 -68 22.5t-24 63.5z" />
<glyph unicode="/" horiz-adv-x="1015" d="M-20 0l2 12l958 1381h129l-2 -13l-958 -1380h-129z" />
<glyph unicode="0" horiz-adv-x="1441" d="M145 518q0 149 26 280.5t81.5 245t137.5 195t200 128t262 46.5q119 0 211.5 -41t150 -114.5t86.5 -171.5t29 -216q0 -148 -26.5 -279t-82.5 -243.5t-138 -194t-200 -127.5t-261 -46q-119 0 -210.5 40.5t-149 113t-87 169.5t-29.5 215zM283 530q0 -89 19.5 -163 t60.5 -132.5t109.5 -91t160.5 -32.5q90 0 166.5 23t132.5 63.5t101 97.5t74.5 122.5t49 141t27.5 150t8 153.5q0 90 -20 164t-60.5 133t-110.5 92t-163 33q-121 0 -218 -44.5t-158.5 -117.5t-103 -172.5t-58.5 -203t-17 -216.5z" />
<glyph unicode="1" horiz-adv-x="952" d="M139 1112l625 281h108l-245 -1393h-140l218 1231l-533 -232z" />
<glyph unicode="2" horiz-adv-x="1263" d="M43 0l18 111l666 454q165 113 235 217t70 240q0 115 -71.5 188.5t-212.5 73.5q-178 0 -288.5 -100t-142.5 -264l-131 20q43 216 192 344.5t382 128.5q201 0 309.5 -109.5t108.5 -269.5q0 -172 -85 -300t-284 -261l-518 -348h772l-23 -125h-997z" />
<glyph unicode="3" horiz-adv-x="1280" d="M47 76l51 117q62 -33 170 -62t232 -29q128 0 233 39t169.5 116.5t64.5 180.5q0 102 -79.5 160.5t-228.5 58.5h-348l21 125h350q158 0 254 86.5t96 202.5q0 103 -88.5 161t-232.5 58q-121 0 -238.5 -31.5t-189.5 -68.5l-17 121q234 102 455 102q211 0 335 -85.5 t124 -231.5q0 -133 -88.5 -239t-227.5 -132q120 -24 182 -100.5t62 -190.5q0 -140 -80.5 -244t-220 -157t-320.5 -53q-231 0 -440 96z" />
<glyph unicode="4" horiz-adv-x="1392" d="M23 309l18 103l938 981h176l-170 -965h293l-21 -119h-294l-54 -309h-133l53 309h-806zM205 428h647l145 832z" />
<glyph unicode="5" horiz-adv-x="1282" d="M23 80l63 119q169 -97 403 -97q94 0 178.5 21.5t156.5 65t114.5 120t42.5 176.5q0 122 -100.5 178t-272.5 56h-385l-4 10l172 664h850l-20 -125h-736l-112 -439h262q226 0 357.5 -84t131.5 -249q0 -133 -52.5 -234.5t-143.5 -161.5t-203 -90t-242 -30q-254 0 -460 100z " />
<glyph unicode="6" horiz-adv-x="1390" d="M143 541q0 252 90.5 449t261.5 310t396 113q145 0 261 -41t175 -90l-67 -119q-51 49 -150.5 88t-222.5 39q-130 0 -237.5 -47.5t-181 -131.5t-118.5 -196t-59 -245q39 43 83.5 81.5t111.5 82.5t154 70t179 26q199 0 314.5 -103t115.5 -282q0 -164 -81 -294t-218 -200.5 t-303 -70.5q-238 0 -371 155.5t-133 405.5zM287 543q3 -196 98.5 -315t273.5 -119q121 0 224 54t164 152t61 217q0 133 -88 206t-236 73q-70 0 -138.5 -20t-121 -48.5t-102 -67.5t-79.5 -70t-56 -62z" />
<glyph unicode="7" horiz-adv-x="1089" d="M158 0l4 14l825 1254h-807l21 125h966l-16 -105l-834 -1288h-159z" />
<glyph unicode="8" horiz-adv-x="1370" d="M92 326q0 169 107 271t301 132q-112 14 -176 91t-64 179q0 193 153 303.5t410 110.5q206 0 326.5 -83.5t120.5 -229.5q0 -141 -100.5 -247t-256.5 -128q137 -20 212 -94.5t75 -192.5q0 -140 -79.5 -244.5t-219.5 -159t-321 -54.5q-225 0 -356.5 93.5t-131.5 252.5z M238 352q0 -116 99 -184t261 -68q195 0 328 90t133 240q0 103 -90 164t-273 61q-227 0 -342.5 -83t-115.5 -220zM397 1006q0 -93 79.5 -155.5t244.5 -62.5q104 0 184.5 24.5t127 67t70 92.5t23.5 107q0 103 -86.5 159t-232.5 56q-119 0 -210 -31t-145.5 -97t-54.5 -160z" />
<glyph unicode="9" horiz-adv-x="1390" d="M96 111l68 118q53 -49 152.5 -88t222.5 -39q172 0 302.5 83.5t202 222t89.5 317.5q-37 -43 -82 -82t-112 -83t-154 -70.5t-179 -26.5q-201 0 -316.5 103t-115.5 282q0 164 81.5 294t219 200.5t303.5 70.5q237 0 369.5 -155.5t132.5 -405.5q0 -252 -90.5 -449t-261.5 -310 t-396 -113q-145 0 -259.5 40.5t-176.5 90.5zM315 860q0 -132 88 -205t236 -73q69 0 138.5 20t121.5 48.5t102.5 68.5t80.5 69.5t57 61.5q-3 194 -100 314t-275 120q-121 0 -224 -54.5t-164 -152.5t-61 -217z" />
<glyph unicode=":" horiz-adv-x="565" d="M80 63q0 65 34.5 103.5t96.5 38.5q44 0 69 -24t25 -66q0 -64 -36 -101t-99 -37q-43 0 -66.5 22.5t-23.5 63.5zM238 961q0 65 34.5 103t96.5 38q44 0 69 -24t25 -66q0 -64 -36 -101t-99 -37q-43 0 -66.5 23t-23.5 64z" />
<glyph unicode=";" horiz-adv-x="602" d="M31 -309l143 284q-40 4 -61 28t-21 58q0 64 34.5 101t96.5 37q46 0 71 -27t25 -70q0 -75 -73.5 -216.5t-136.5 -229.5zM270 961q0 65 34.5 103t96.5 38q44 0 69.5 -24.5t25.5 -65.5q0 -64 -36.5 -101t-99.5 -37q-43 0 -66.5 23t-23.5 64z" />
<glyph unicode="&#x3c;" horiz-adv-x="1157" d="M88 561l21 113l966 424h12l-18 -119l-854 -365l725 -362l-20 -111h-13z" />
<glyph unicode="=" horiz-adv-x="1267" d="M119 272l20 115h908l-21 -115h-907zM221 852l21 115h907l-21 -115h-907z" />
<glyph unicode="&#x3e;" horiz-adv-x="1155" d="M72 141l20 121l854 363l-725 364l19 109h12l821 -424l-20 -113l-969 -420h-12z" />
<glyph unicode="?" horiz-adv-x="944" d="M199 1231q71 82 162 132t225 50q147 0 236 -87.5t89 -223.5q0 -68 -16 -121.5t-54.5 -100.5t-64.5 -71t-83 -69q-15 -13 -23 -19l-146 -119q-52 -41 -64 -57q-24 -32 -24 -92q0 -5 1 -18.5t1 -18.5h-121q-6 27 -6 55q0 71 28.5 115t100.5 100l146 117q87 71 113 100 q71 80 71 191q0 91 -60.5 145.5t-154.5 54.5q-188 0 -322 -170zM207 63q0 67 34.5 105.5t96.5 38.5q44 0 69 -24t25 -66q0 -66 -36 -103t-99 -37q-90 0 -90 86z" />
<glyph unicode="@" horiz-adv-x="2017" d="M96 389q0 228 85.5 430.5t231 345t343 225.5t415.5 83q171 0 315 -53t242 -146t152.5 -223t54.5 -281q0 -175 -47.5 -319.5t-126 -236t-175.5 -141.5t-200 -50q-166 0 -172 135q-66 -61 -154.5 -98t-185.5 -37q-174 0 -278 115.5t-104 291.5q0 255 156 423.5t392 168.5 q97 0 175.5 -35t119.5 -92l21 111h135l-135 -754q-11 -62 5 -92.5t77 -30.5q48 0 100.5 24.5t105 77t94 124.5t67.5 178t26 227q0 131 -46.5 243t-131 193.5t-211 127.5t-279.5 46q-196 0 -373 -74.5t-306 -203t-205 -311t-76 -388.5q0 -196 80.5 -352t233 -246t353.5 -90 q180 0 385 90l25 -98q-205 -94 -424 -94q-223 0 -397.5 103.5t-268.5 282t-94 400.5zM633 446q0 -134 77 -218.5t212 -84.5q84 0 164 36t139 89l90 504q-37 55 -105 92t-153 37q-184 0 -304 -129.5t-120 -325.5z" />
<glyph unicode="A" horiz-adv-x="1411" d="M-43 0l825 1393h158l303 -1393h-137l-74 338h-731l-201 -338h-143zM360 446h654l-176 805z" />
<glyph unicode="B" horiz-adv-x="1376" d="M113 0l245 1393h482q188 0 290.5 -77.5t102.5 -223.5q0 -142 -81.5 -234.5t-223.5 -134.5q139 -20 216 -98.5t77 -204.5q0 -195 -138.5 -307.5t-396.5 -112.5h-573zM274 123h416q188 0 286.5 78.5t98.5 224.5q0 113 -86.5 169t-245.5 56h-376zM389 776h311 q174 0 278.5 73t104.5 218q0 203 -282 203h-324z" />
<glyph unicode="C" horiz-adv-x="1472" d="M135 588q0 170 67 323.5t179.5 263t265 174t318.5 64.5q161 0 290 -59t209 -166l-82 -94q-68 89 -178.5 138.5t-253.5 49.5q-136 0 -260.5 -54t-215 -145.5t-144.5 -218.5t-54 -266q0 -214 127 -350.5t340 -136.5q140 0 268.5 52.5t227.5 143.5l55 -106 q-241 -221 -567 -221q-174 0 -309.5 79.5t-209 218t-73.5 310.5z" />
<glyph unicode="D" horiz-adv-x="1576" d="M113 0l245 1393h510q267 -2 432.5 -156.5t165.5 -417.5q0 -194 -64.5 -351t-177 -258t-261.5 -155.5t-322 -54.5h-528zM274 125h375q141 0 263 45.5t213.5 131t143.5 216.5t52 293q0 215 -127.5 336t-341.5 121h-377z" />
<glyph unicode="E" horiz-adv-x="1370" d="M113 0l245 1393h1026l-20 -125h-895l-84 -480h748l-21 -124h-750l-94 -539h893l-22 -125h-1026z" />
<glyph unicode="F" horiz-adv-x="1304" d="M113 0l245 1393h988l-23 -125h-854l-100 -566h747l-22 -124h-746l-102 -578h-133z" />
<glyph unicode="G" horiz-adv-x="1564" d="M139 580q0 153 45.5 286.5t125.5 232.5t186.5 170.5t232 107.5t258.5 36q299 0 488 -196l-86 -107q-159 172 -412 172q-137 0 -262.5 -48t-221.5 -135.5t-153 -220t-57 -290.5q0 -219 136.5 -348t356.5 -129q116 0 233.5 33.5t202.5 88.5l68 381h-481l22 123h619 l-101 -583q-111 -75 -272.5 -124.5t-312.5 -49.5q-177 0 -316 71.5t-219 208.5t-80 320z" />
<glyph unicode="H" horiz-adv-x="1660" d="M113 0l245 1393h140l-113 -631h944l113 631h139l-246 -1393h-139l113 637h-944l-113 -637h-139z" />
<glyph unicode="I" horiz-adv-x="577" d="M113 0l245 1393h140l-246 -1393h-139z" />
<glyph unicode="J" horiz-adv-x="1298" d="M45 512l137 14q-5 -48 -5 -90q0 -137 56 -220q74 -110 256 -110q185 0 302 115.5t153 315.5l152 856h139l-154 -863q-46 -259 -199.5 -407t-402.5 -148q-241 0 -351 144q-89 115 -89 297q0 46 6 96z" />
<glyph unicode="K" horiz-adv-x="1345" d="M113 0l245 1393h140l-115 -645h176l682 645h152v-21l-721 -692l538 -662l-2 -18h-157l-500 623h-191l-108 -623h-139z" />
<glyph unicode="L" horiz-adv-x="1161" d="M113 0l245 1393h140l-224 -1268h775l-23 -125h-913z" />
<glyph unicode="M" horiz-adv-x="1878" d="M113 0l245 1393h119l461 -744l725 744h135l-244 -1393h-139l205 1169l-690 -708h-33l-438 708l-207 -1169h-139z" />
<glyph unicode="N" horiz-adv-x="1654" d="M113 0l245 1393h125l746 -1182l207 1182h139l-246 -1393h-123l-747 1182l-207 -1182h-139z" />
<glyph unicode="O" horiz-adv-x="1656" d="M135 582q0 173 67 328.5t179.5 265t264.5 173.5t317 64q261 0 425 -172t164 -434q0 -174 -67 -329t-180 -263.5t-265 -171.5t-317 -63q-172 0 -306.5 78.5t-208 215.5t-73.5 308zM276 594q0 -208 128 -344.5t337 -136.5q180 0 334.5 89.5t246 247t91.5 345.5 q0 211 -128.5 348t-338.5 137q-134 0 -257 -52.5t-214 -143t-145 -219t-54 -271.5z" />
<glyph unicode="P" horiz-adv-x="1372" d="M113 0l245 1393h576q175 0 288 -105t113 -297q0 -131 -46.5 -240t-125 -179.5t-179 -109t-210.5 -38.5h-448l-74 -424h-139zM348 549h424q81 0 156 29.5t133.5 83t93.5 136t35 181.5q0 138 -81 213.5t-210 75.5h-424z" />
<glyph unicode="Q" horiz-adv-x="1654" d="M135 580q0 173 67 329t179 265.5t264 174t316 64.5q172 0 308 -81t209.5 -219t73.5 -306q0 -201 -86.5 -372t-237.5 -283t-343 -150q15 -14 44.5 -46.5t51.5 -55.5t58.5 -52.5t71 -48.5t83 -32t100.5 -13q118 0 230 35l-2 -119q-119 -39 -256 -39q-94 0 -176.5 33 t-138 81.5t-99 97.5t-79 89t-58.5 48q-170 0 -303.5 80t-205 216t-71.5 304zM276 594q0 -136 56 -245t162.5 -172.5t244.5 -63.5q181 0 336 89.5t246.5 246.5t91.5 346q0 211 -128.5 348t-338.5 137q-134 0 -257 -52.5t-214 -143t-145 -219t-54 -271.5z" />
<glyph unicode="R" horiz-adv-x="1466" d="M113 0l245 1393h580q111 0 202.5 -39t150.5 -124.5t59 -205.5q0 -114 -42.5 -209t-114.5 -156.5t-162.5 -96.5t-190.5 -38l483 -504v-20h-164l-493 524h-322l-92 -524h-139zM365 639h454q74 0 142.5 25.5t122 71.5t86 118.5t32.5 159.5q0 123 -75.5 188.5t-196.5 65.5 h-455z" />
<glyph unicode="S" horiz-adv-x="1267" d="M57 102l58 129q70 -47 180 -84.5t231 -37.5q189 0 314 85t125 222q0 152 -248 213l-244 63q-274 73 -274 289q0 68 21 130t66.5 117t112 95.5t164 64t215.5 23.5q126 0 249 -33.5t198 -79.5l-60 -120q-64 41 -179.5 72.5t-225.5 31.5q-205 0 -309.5 -83t-104.5 -200 q0 -69 46 -112t140 -68l242 -65q169 -45 252.5 -122t83.5 -196q0 -210 -167 -333t-427 -123q-141 0 -264.5 38t-194.5 84z" />
<glyph unicode="T" horiz-adv-x="1239" d="M160 1268l20 125h1153l-22 -125h-490l-225 -1268h-139l225 1268h-522z" />
<glyph unicode="U" horiz-adv-x="1560" d="M185 372q-2 24 -2 50q0 68 12 143l143 828h139l-143 -822q-11 -65 -12 -122q0 -65 16 -121q28 -102 116.5 -162t235.5 -60q111 0 203.5 36t157 100t106.5 148t60 183l143 820h139l-147 -828q-20 -122 -71.5 -226t-133 -186.5t-203 -130t-268.5 -47.5q-113 0 -203 28.5 t-149.5 80.5t-96 125t-42.5 163z" />
<glyph unicode="V" horiz-adv-x="1421" d="M201 1393h143l260 -1264l735 1264h156l-823 -1393h-170z" />
<glyph unicode="W" horiz-adv-x="2166" d="M201 1393h141l268 -1235l457 757l-98 478h145l254 -1217l717 1217h158l-824 -1393h-149l-166 752l-453 -752h-149z" />
<glyph unicode="X" horiz-adv-x="1382" d="M-43 0l2 12l649 684l-407 684l2 13h153l363 -602l573 602h166l-2 -13l-651 -684l409 -684l-2 -12h-155l-361 600l-573 -600h-166z" />
<glyph unicode="Y" horiz-adv-x="1380" d="M188 1380l2 13h148l358 -676l598 676h162l-2 -13l-702 -790l-105 -590h-139l104 588z" />
<glyph unicode="Z" horiz-adv-x="1206" d="M-4 0l20 104l1018 1164h-813l21 125h997l-16 -105l-1018 -1163h813l-25 -125h-997z" />
<glyph unicode="[" horiz-adv-x="690" d="M27 -385l20 117l283 1607l20 115h398l-21 -115h-281l-282 -1607h280l-20 -117h-397z" />
<glyph unicode="\" horiz-adv-x="978" d="M209 1380v13h121l473 -1381l-4 -12h-121z" />
<glyph unicode="]" horiz-adv-x="688" d="M-82 -385l21 117h280l285 1607h-281l21 115h395l-305 -1722l-21 -117h-395z" />
<glyph unicode="^" horiz-adv-x="1097" d="M178 831v15l457 547h110l271 -547l-2 -15h-125l-213 451l-365 -451h-133z" />
<glyph unicode="_" horiz-adv-x="1337" d="M31 -201l20 115h993l-20 -115h-993z" />
<glyph unicode="`" horiz-adv-x="1191" d="M725 1518h137l113 -281h-119z" />
<glyph unicode="a" horiz-adv-x="1329" d="M111 440q0 187 79 336t217 231.5t308 82.5q105 0 192.5 -41t143.5 -107l22 129h139l-188 -1071h-139l20 121q-155 -141 -360 -141q-199 0 -316.5 130.5t-117.5 329.5zM254 455q0 -156 89 -253.5t243 -97.5q95 0 186 42t156 102l100 575q-42 59 -119 100.5t-170 41.5 q-210 0 -347.5 -144.5t-137.5 -365.5z" />
<glyph unicode="b" d="M92 0l256 1454h139l-90 -506q160 142 371 142q129 0 227.5 -61.5t149.5 -165.5t51 -232q0 -141 -46.5 -263t-127 -207t-193.5 -133t-243 -48q-109 0 -194 41.5t-138 109.5l-23 -131h-139zM274 250q41 -60 119 -103t174 -43q210 0 347 144.5t137 369.5q0 154 -88 250.5 t-242 96.5q-96 0 -189.5 -43.5t-156.5 -106.5z" />
<glyph unicode="c" horiz-adv-x="1179" d="M109 449q0 135 50.5 255.5t137 207t207.5 137.5t256 51q118 0 213.5 -38.5t156.5 -107.5l-81 -100q-48 53 -125.5 85t-171.5 32q-212 0 -358 -147t-146 -361q0 -160 95 -261.5t255 -101.5q181 0 332 123l53 -110q-179 -142 -405 -142q-211 0 -340 135.5t-129 342.5z" />
<glyph unicode="d" horiz-adv-x="1329" d="M111 440q0 187 79 336t217 231.5t308 82.5q106 0 192.5 -41.5t143.5 -106.5l90 512h139l-256 -1454h-139l20 123q-153 -143 -360 -143q-199 0 -316.5 130.5t-117.5 329.5zM254 455q0 -156 89 -253.5t243 -97.5q95 0 186 42t156 102l102 573q-42 60 -119.5 102t-171.5 42 q-210 0 -347.5 -144.5t-137.5 -365.5z" />
<glyph unicode="e" horiz-adv-x="1259" d="M106 426q0 134 47 257t129 215t202 147t259 55q196 0 300 -102.5t104 -266.5q0 -60 -14 -130t-33 -116h-852q-4 -32 -4 -61q0 -132 74 -222q90 -110 280 -110q218 0 389 129l43 -108q-198 -142 -448 -142q-121 0 -214 35.5t-149 98t-84.5 143.5t-28.5 178zM270 598h723 q21 82 21 131q0 107 -70 179.5t-209 72.5q-174 0 -304.5 -111.5t-160.5 -271.5z" />
<glyph unicode="f" horiz-adv-x="915" d="M137 -385l223 1278h-217l21 113h217l18 106q28 165 121 264t256 99q85 0 153 -34.5t103 -78.5l-57 -107q-80 95 -195 95q-198 0 -241 -238l-19 -106h389l-20 -113h-389l-224 -1278h-139z" />
<glyph unicode="g" horiz-adv-x="1329" d="M115 -289l55 121q150 -113 332 -113q143 0 254.5 90.5t142.5 260.5l23 127q-157 -136 -369 -136q-196 0 -314 126t-118 313q0 162 75.5 296.5t211.5 214t303 79.5q108 0 196 -43t144 -109l24 133h139l-174 -991q-42 -234 -189 -360t-362 -126q-203 0 -374 117zM266 510 q0 -138 90 -231t244 -93q96 0 188 41.5t156 102.5l86 487q-41 61 -119.5 104.5t-177.5 43.5q-200 0 -333.5 -132.5t-133.5 -322.5z" />
<glyph unicode="h" d="M92 0l256 1454h137l-102 -580q163 216 426 216q138 0 223 -64q86 -64 113 -170q14 -55 14 -119q0 -60 -12 -127l-107 -610h-139l107 598q9 51 9 96q0 98 -43 166q-63 98 -220 98q-136 0 -242.5 -76.5t-159.5 -193.5l-123 -688h-137z" />
<glyph unicode="i" horiz-adv-x="536" d="M90 0l191 1071h139l-189 -1071h-141zM309 1356q0 108 113 108q78 0 78 -67q0 -56 -30 -82.5t-79 -26.5q-82 0 -82 68z" />
<glyph unicode="j" horiz-adv-x="534" d="M-176 -305q114 59 182.5 137t91.5 207l183 1032h139l-182 -1028q-55 -317 -340 -446zM309 1356q0 108 113 108q76 0 76 -67q0 -56 -30 -82.5t-79 -26.5q-80 0 -80 68z" />
<glyph unicode="k" horiz-adv-x="1114" d="M92 0l256 1454h139l-147 -840l592 457h172l-2 -22l-631 -484l477 -542l-2 -23h-158l-462 541l-95 -541h-139z" />
<glyph unicode="l" horiz-adv-x="636" d="M137 227l215 1227h140l-211 -1204q-5 -26 -5 -48q0 -41 16 -65q24 -37 79 -37q66 0 141 45l-2 -116q-85 -49 -195 -49q-102 0 -152 60q-34 41 -34 112q0 34 8 75z" />
<glyph unicode="m" horiz-adv-x="2082" d="M92 0l189 1071h137l-35 -201q161 220 414 220q151 0 229.5 -64.5t99.5 -185.5q73 111 189 180.5t260 69.5q104 0 177 -36.5t109.5 -101t48.5 -152.5q4 -32 4 -65q0 -59 -13 -125l-109 -610h-139l106 598q10 56 10 104q0 94 -38 158q-57 98 -211 98q-136 0 -235.5 -77.5 t-151.5 -196.5q-1 -7 -13 -68l-108 -616h-138l105 598q10 57 10 105q1 95 -37 159q-56 96 -211 96q-136 0 -235.5 -76.5t-155.5 -197.5l-121 -684h-137z" />
<glyph unicode="n" d="M92 0l189 1071h137l-35 -197q162 216 426 216q138 0 223 -64q86 -64 113 -170q14 -55 14 -119q0 -60 -12 -127l-107 -610h-139l107 598q9 51 9 96q0 97 -43 165q-63 99 -218 99q-138 0 -245.5 -76.5t-160.5 -193.5l-121 -688h-137z" />
<glyph unicode="o" horiz-adv-x="1366" d="M106 446q0 183 87 333.5t236.5 235.5t328.5 85q214 0 344.5 -133.5t130.5 -345.5q0 -183 -86.5 -332.5t-236.5 -233.5t-332 -84q-211 0 -341.5 132.5t-130.5 342.5zM244 459q0 -155 95 -257t253 -102q212 0 358 146t146 364q0 156 -96 258.5t-255 102.5 q-102 0 -194.5 -39t-160 -106.5t-107 -163t-39.5 -203.5z" />
<glyph unicode="p" horiz-adv-x="1329" d="M23 -385l258 1456h139l-23 -121q162 140 363 140q199 0 316.5 -131t117.5 -330q0 -187 -79 -336t-215.5 -231t-305.5 -82q-109 0 -198 41t-144 106l-90 -512h-139zM274 250q42 -62 120 -104t177 -42q205 0 342.5 145t137.5 365q0 156 -89 253.5t-243 97.5q-94 0 -187 -43 t-157 -103z" />
<glyph unicode="q" d="M111 440q0 188 79 337.5t218 232t311 82.5q108 0 194 -42.5t140 -109.5l24 131h140l-259 -1456h-139l88 506q-72 -63 -166.5 -101t-199.5 -38q-195 0 -312.5 130.5t-117.5 327.5zM256 453q0 -154 89 -250.5t243 -96.5q94 0 187 43t157 105l100 567q-43 61 -121 103.5 t-178 42.5q-204 0 -340.5 -145t-136.5 -369z" />
<glyph unicode="r" horiz-adv-x="923" d="M92 0l189 1071h137l-41 -233q154 252 362 252q125 0 207 -82l-78 -115q-65 65 -170 65q-110 0 -200 -77t-150 -201l-119 -680h-137z" />
<glyph unicode="s" horiz-adv-x="1069" d="M57 76l45 114q154 -92 336 -92q141 0 229.5 61t88.5 148q0 54 -42 87t-124 59l-203 61q-117 38 -171 88t-54 139q0 158 127 253.5t334 95.5q102 0 202.5 -24t157.5 -56l-53 -115q-60 31 -149 52.5t-171 21.5q-143 0 -226 -55t-83 -154q0 -51 37 -80t123 -53l196 -56 q121 -38 181.5 -97t60.5 -150q0 -152 -133 -248t-336 -96q-214 0 -373 96z" />
<glyph unicode="t" horiz-adv-x="954" d="M137 956l19 115h209l61 272h125l-47 -272h428l-21 -115h-430l-110 -626q-7 -39 -7 -71q0 -62 24 -99q36 -56 136 -56q60 0 133 24t127 60l31 -116q-161 -92 -340 -92q-143 0 -209 84q-47 60 -47 156q0 39 8 85l115 651h-205z" />
<glyph unicode="u" d="M158 463l108 608h140l-107 -598q-9 -51 -9 -96q0 -97 43 -165q63 -98 220 -99q136 0 243.5 76.5t159.5 193.5l121 688h137l-188 -1071h-137l35 197q-162 -215 -424 -215q-205 0 -292 133q-61 93 -61 227q0 57 11 121z" />
<glyph unicode="v" horiz-adv-x="1189" d="M156 1071h141l207 -938l538 938h148l-623 -1071h-164z" />
<glyph unicode="w" horiz-adv-x="1957" d="M160 1071h141l168 -938l504 938h162l161 -938l510 938h148l-588 -1071h-164l-170 936l-504 -936h-161z" />
<glyph unicode="x" horiz-adv-x="1157" d="M-27 0l2 12l492 520l-307 527l2 12h147l264 -453l424 453h160v-12l-495 -527l309 -520l-2 -12h-150l-262 446l-418 -446h-166z" />
<glyph unicode="y" horiz-adv-x="1226" d="M-113 -330l43 113q91 -68 203 -68q91 0 152.5 50.5t126.5 160.5l47 84l-314 1061h148l250 -919l530 919h150l-680 -1157q-38 -64 -69 -109.5t-70.5 -87.5t-80 -67.5t-92.5 -40.5t-112 -15q-134 0 -232 76z" />
<glyph unicode="z" horiz-adv-x="1054" d="M8 0l17 104l800 852h-651l23 115h829l-20 -104l-797 -852h647l-20 -115h-828z" />
<glyph unicode="{" horiz-adv-x="626" d="M39 -215q0 51 22.5 112t54.5 118t64.5 113.5t55 117.5t22.5 112q0 121 -170 121l16 92q122 0 174 51t52 166q0 64 -23.5 199t-23.5 187q0 122 74 201t225 79h80l-21 -104h-61q-84 0 -134.5 -49.5t-50.5 -137.5q0 -48 24.5 -185.5t24.5 -201.5q0 -118 -44 -173.5 t-140 -78.5q117 -33 117 -141q0 -54 -22.5 -118t-54.5 -122t-64.5 -114t-55 -111t-22.5 -96q0 -52 32.5 -83.5t98.5 -31.5h63l-18 -104h-66q-113 0 -171 52t-58 130z" />
<glyph unicode="|" horiz-adv-x="516" d="M27 -385l323 1839h115l-324 -1839h-114z" />
<glyph unicode="}" horiz-adv-x="624" d="M-61 -397l20 104h61q84 0 134.5 49.5t50.5 137.5q0 48 -24.5 185.5t-24.5 201.5q0 117 44.5 172.5t139.5 78.5q-117 33 -117 140q0 54 22.5 118t54.5 122t64.5 114t55 111.5t22.5 97.5q0 52 -32.5 83.5t-98.5 31.5h-63l18 104h66q114 0 171.5 -52.5t57.5 -131.5 q0 -51 -22.5 -111.5t-55 -117t-64.5 -113.5t-54.5 -118t-22.5 -112q0 -123 170 -123l-16 -92q-122 0 -174 -50t-52 -165q0 -65 23.5 -199.5t23.5 -187.5q0 -122 -74 -200t-225 -78h-79z" />
<glyph unicode="~" horiz-adv-x="1050" d="M152 580q28 79 84 129.5t131 50.5q39 0 77.5 -18t69 -44t59 -52t60 -44t61.5 -18q55 0 92 35.5t68 103.5l51 -66q-34 -85 -89.5 -133.5t-129.5 -48.5q-39 0 -75.5 18t-65 44l-57 52t-62 44t-68.5 18q-47 0 -90 -35.5t-67 -101.5z" />
<glyph unicode="&#xa1;" horiz-adv-x="530" d="M33 -315l190 974h107l-156 -974h-141zM219 961q0 66 35 102.5t98 36.5q44 0 68 -22.5t24 -65.5q0 -67 -34.5 -104.5t-96.5 -37.5q-45 0 -69.5 24t-24.5 67z" />
<glyph unicode="&#xa2;" horiz-adv-x="1224" d="M109 449q0 135 50.5 255.5t137 207t207.5 137.5t256 51q42 0 82 -6l96 217l90 -27l-94 -209q117 -36 196 -121l-81 -100q-61 67 -168 98l-375 -841q53 -11 92 -11q181 0 332 123l53 -110q-179 -142 -405 -142q-54 0 -127 15l-117 -262l-88 26l116 266q-119 55 -186 170.5 t-67 262.5zM248 463q0 -108 44.5 -192t127.5 -128l366 826q-12 2 -34 2q-212 0 -358 -147t-146 -361z" />
<glyph unicode="&#xa3;" horiz-adv-x="1269" d="M31 137q0 100 67 162.5t168 62.5q67 0 103 -24q12 58 12.5 151.5t-4.5 176.5h-201l17 94h180v65q0 279 121.5 433.5t349.5 154.5q56 0 109.5 -14.5t92.5 -35t73 -47t54 -47.5t33 -40l-71 -115q-53 68 -80 93q-85 77 -203 77q-157 0 -244.5 -109.5t-93.5 -312.5 q-4 -66 -4 -102h461l-19 -94h-442q0 -85 -1 -132t-7.5 -116.5t-20.5 -120.5q23 -15 61.5 -51t70 -66.5t73 -55t76.5 -24.5q97 0 152 85.5t81 248.5h119q-29 -213 -115.5 -333.5t-230.5 -120.5q-48 0 -99 27t-86 60t-78.5 76t-66.5 60q-24 -51 -45 -86t-51 -69t-69 -51 t-87 -17q-72 0 -113.5 44.5t-41.5 112.5zM123 145q0 -32 19 -53.5t55 -21.5q56 0 89.5 48.5t59.5 133.5q-27 24 -84 24q-58 0 -98.5 -36t-40.5 -95z" />
<glyph unicode="&#xa4;" horiz-adv-x="1103" d="M109 301l129 113q-41 73 -41 149q0 162 106 271l-90 112l96 80l90 -117q94 62 207 62q117 0 187 -70l139 121l69 -84l-139 -121q39 -66 39 -147q0 -142 -100 -260l94 -119l-94 -80l-96 121q-85 -64 -213 -64q-109 0 -183 64l-131 -115zM301 573q0 -90 55.5 -148 t147.5 -58q123 0 207 85t84 210q0 90 -55 149t-148 59q-120 0 -205.5 -86.5t-85.5 -210.5z" />
<glyph unicode="&#xa5;" horiz-adv-x="1200" d="M131 317l14 95h344l25 149h-340l16 94h304l-273 725l2 13h142l241 -688l490 688h151l-4 -13l-534 -725h307l-17 -94h-344l-26 -149h344l-17 -95h-344l-55 -317h-139l55 317h-342z" />
<glyph unicode="&#xa6;" horiz-adv-x="526" d="M31 -385l127 711h112l-125 -711h-114zM236 768l120 686h115l-121 -686h-114z" />
<glyph unicode="&#xa7;" horiz-adv-x="1294" d="M49 -106l45 118q74 -35 195 -64.5t248 -29.5q108 0 192 19t137.5 62.5t53.5 106.5q0 53 -53 86t-160 56l-314 63q-254 51 -254 244q0 107 67.5 194.5t196.5 133.5q-75 22 -120 72t-45 128q0 143 139 236.5t395 93.5q146 0 268.5 -26.5t200.5 -63.5l-53 -115 q-80 37 -198.5 63.5t-239.5 26.5q-176 0 -274.5 -56.5t-98.5 -137.5q0 -99 131 -119l332 -59q149 -27 230 -102t81 -181q0 -113 -71.5 -194t-202.5 -123q186 -64 186 -201q0 -102 -72 -176t-195.5 -111t-283.5 -37q-143 0 -265.5 29t-197.5 64zM274 575q0 -62 43 -99.5 t140 -57.5l194 -39q163 2 263 68.5t100 179.5q0 74 -59.5 122.5t-174.5 67.5l-164 27q-86 -4 -154 -29.5t-107.5 -65t-60 -84t-20.5 -90.5z" />
<glyph unicode="&#xa8;" horiz-adv-x="1191" d="M512 1356q0 104 104 104q74 0 74 -65q0 -53 -28.5 -80t-73.5 -27q-76 0 -76 68zM1016 1356q0 104 106 104q72 0 72 -65q0 -53 -28.5 -80t-73.5 -27q-76 0 -76 68z" />
<glyph unicode="&#xa9;" horiz-adv-x="1660" d="M139 584q0 171 66.5 325.5t178.5 264t263.5 174.5t315.5 65q173 0 308.5 -79.5t209 -217.5t73.5 -309q0 -137 -43 -264.5t-120.5 -228.5t-180.5 -177t-228 -116.5t-257 -40.5q-172 0 -306 79t-207 216.5t-73 308.5zM227 590q0 -148 62 -267t178.5 -188t265.5 -69 q195 0 362.5 96t268 266t100.5 373q0 148 -62 267.5t-179 189t-267 69.5q-194 0 -361 -96.5t-267.5 -267t-100.5 -373.5zM489 651q0 168 123.5 285t294.5 117q172 0 262 -111l-61 -80q-67 86 -199 86q-129 0 -218 -85.5t-89 -209.5q0 -94 59 -152.5t160 -58.5q131 0 230 86 l41 -84q-125 -106 -293 -106q-140 0 -225 86t-85 227z" />
<glyph unicode="&#xaa;" horiz-adv-x="991" d="M172 440l14 88h605l-17 -88h-602zM225 895q0 127 101.5 193.5t271.5 66.5q44 0 102 -12l5 35q15 75 -15.5 108t-109.5 33q-113 0 -209 -49l-4 92q43 21 107.5 34t125.5 13q115 0 173 -53t36 -170l-55 -309q-13 -80 43 -80q29 0 73 26l-4 -84q-62 -30 -114 -30 q-86 0 -99 88q-100 -88 -225 -88q-91 0 -147 51.5t-56 134.5zM326 905q0 -51 36.5 -79.5t98.5 -28.5q99 0 190 73l35 199q-27 12 -94 12q-124 0 -195 -43t-71 -133z" />
<glyph unicode="&#xab;" horiz-adv-x="1052" d="M125 604l4 31l389 407h12l41 -49l-321 -379l190 -381l-59 -34h-12zM537 604l4 31l389 407h10l43 -49l-324 -379l191 -381l-57 -34h-13z" />
<glyph unicode="&#xac;" horiz-adv-x="1263" d="M188 684l21 115h909l-94 -525h-115l74 410h-795z" />
<glyph unicode="&#xad;" horiz-adv-x="1079" d="M162 561l20 117h740l-21 -117h-739z" />
<glyph unicode="&#xae;" horiz-adv-x="1660" d="M139 584q0 171 66.5 325.5t178.5 264t263.5 174.5t315.5 65q173 0 308.5 -79.5t209 -217.5t73.5 -309q0 -137 -43 -264.5t-120.5 -228.5t-180.5 -177t-228 -116.5t-257 -40.5q-172 0 -306 79t-207 216.5t-73 308.5zM227 590q0 -148 62 -267t178.5 -188t265.5 -69 q195 0 362.5 96t268 266t100.5 373q0 148 -62 267.5t-179 189t-267 69.5q-194 0 -361 -96.5t-267.5 -267t-100.5 -373.5zM512 346l123 696h301q93 0 150 -52t57 -140q0 -105 -69.5 -174t-170.5 -78l199 -231l-2 -21h-125l-207 252h-102l-43 -252h-111zM682 682h190 q71 0 117.5 43.5t46.5 116.5q0 53 -32 81.5t-82 28.5h-193z" />
<glyph unicode="&#xaf;" horiz-adv-x="1191" d="M600 1303l18 102h478l-19 -102h-477z" />
<glyph unicode="&#xb0;" horiz-adv-x="952" d="M201 1006q0 169 119.5 287t287.5 118q135 0 217 -84t82 -215q0 -170 -119 -286.5t-288 -116.5q-134 0 -216.5 83.5t-82.5 213.5zM307 1016q0 -90 55.5 -148.5t147.5 -58.5q122 0 206.5 85.5t84.5 209.5q0 90 -55 148.5t-148 58.5q-121 0 -206 -85.5t-85 -209.5z" />
<glyph unicode="&#xb1;" horiz-adv-x="1288" d="M117 166l20 115h910l-21 -115h-909zM227 788l21 115h395l74 410h112l-71 -410h397l-20 -115h-398l-55 -321h-115l58 321h-398z" />
<glyph unicode="&#xb2;" horiz-adv-x="659" d="M162 954l12 70l297 203q77 52 109 96.5t32 101.5q0 49 -30.5 80t-89.5 31q-77 0 -124.5 -43.5t-60.5 -114.5l-82 13q21 104 92.5 165.5t182.5 61.5q96 0 149 -52.5t53 -129.5q0 -76 -43 -139t-139 -128l-205 -137h338l-14 -78h-477z" />
<glyph unicode="&#xb3;" horiz-adv-x="655" d="M154 989l34 74q79 -41 183 -41q85 0 142.5 37.5t57.5 101.5q0 42 -35.5 66t-101.5 24h-162l15 76h162q70 0 110.5 36.5t40.5 88.5q0 43 -36.5 65.5t-102.5 22.5q-98 0 -195 -43l-10 76q121 45 217 45q105 0 162 -40.5t57 -111.5q0 -62 -39 -108.5t-106 -63.5 q54 -10 83 -46.5t29 -90.5q0 -99 -82 -156t-217 -57q-90 0 -206 45z" />
<glyph unicode="&#xb4;" horiz-adv-x="1191" d="M666 1237l213 281h151l-229 -281h-135z" />
<glyph unicode="&#xb5;" horiz-adv-x="1263" d="M25 -385l256 1456h139l-105 -602q-31 -170 25.5 -265t210.5 -95q123 0 223 68.5t154 170.5l127 723h139l-188 -1071h-140l29 162q-152 -182 -403 -182q-164 0 -248 90l-80 -455h-139z" />
<glyph unicode="&#xb6;" horiz-adv-x="1067" d="M117 793q0 129 81 202.5t203 75.5h228l-256 -1456h-115l174 987h-115q-91 0 -145.5 50t-54.5 141zM573 -385l256 1456h115l-256 -1456h-115z" />
<glyph unicode="&#xb7;" horiz-adv-x="552" d="M164 582q0 66 35 104.5t98 38.5q44 0 69 -24t25 -66q0 -66 -36 -102.5t-99 -36.5q-44 0 -68 22.5t-24 63.5z" />
<glyph unicode="&#xb8;" horiz-adv-x="1191" d="M356 -381l27 62q66 -25 121 -25q64 0 104.5 24t40.5 70q0 62 -104 62q-67 0 -123 -17l-4 8l86 197h71l-61 -137q36 8 68 8q68 0 105.5 -31.5t37.5 -83.5q0 -78 -64.5 -120t-164.5 -42q-73 0 -140 25z" />
<glyph unicode="&#xb9;" horiz-adv-x="503" d="M190 1468l295 138h68l-115 -654h-86l99 553l-238 -108z" />
<glyph unicode="&#xba;" horiz-adv-x="1036" d="M188 440l17 88h602l-14 -88h-605zM246 1006q0 169 119 287t288 118q133 0 215 -84t82 -215q0 -169 -118 -286t-289 -117q-132 0 -214.5 83.5t-82.5 213.5zM344 1014q0 -93 56 -153t151 -60q128 0 215.5 87t87.5 216q0 93 -57.5 154t-153.5 61q-125 0 -212 -88t-87 -217z " />
<glyph unicode="&#xbb;" horiz-adv-x="1050" d="M76 246l321 381l-190 379l59 36h13l243 -407l-4 -31l-389 -405h-12zM487 246l322 381l-191 379l60 36h12l244 -407l-6 -31l-387 -405h-13z" />
<glyph unicode="&#xbc;" horiz-adv-x="1505" d="M152 0l2 12l974 1381h95l-2 -13l-975 -1380h-94zM186 1264l295 137h68l-115 -653h-86l98 552l-237 -108zM748 137l10 64l426 452h114l-77 -446h131l-13 -70h-131l-24 -137h-86l24 137h-374zM852 207h283l63 368z" />
<glyph unicode="&#xbd;" horiz-adv-x="1452" d="M156 0l2 12l975 1381h94l-2 -13l-975 -1380h-94zM186 1253l295 138h68l-115 -654h-86l98 553l-237 -108zM770 0l12 70l297 202q76 52 109 97.5t33 101.5q0 49 -30.5 80t-90.5 31q-75 0 -123 -43.5t-62 -114.5l-79 12q19 104 90 166t184 62q95 0 148 -52.5t53 -130.5 q0 -76 -42.5 -138.5t-138.5 -127.5l-204 -137h336l-15 -78h-477z" />
<glyph unicode="&#xbe;" horiz-adv-x="1628" d="M141 784l35 74q79 -41 182 -41q85 0 143 37.5t58 101.5q0 42 -35.5 66.5t-101.5 24.5h-162l14 75h162q70 0 111 36.5t41 88.5q0 43 -36.5 65.5t-102.5 22.5q-98 0 -195 -43l-10 76q121 45 217 45q105 0 162 -40t57 -111q0 -62 -39 -108.5t-106 -63.5q54 -10 83 -47 t29 -91q0 -99 -82 -156t-217 -57q-91 0 -207 45zM281 0l2 12l974 1381h95l-2 -13l-975 -1380h-94zM874 137l11 64l426 452h114l-77 -446h131l-13 -70h-131l-24 -137h-86l24 137h-375zM979 207h283l63 368z" />
<glyph unicode="&#xbf;" horiz-adv-x="927" d="M-2 -25q0 67 15.5 121t55 101t64 70t82.5 69q17 13 25 20l145 119q52 41 64 58q24 33 24 92q0 5 -1 17t-1 17h123q4 -32 4 -53q0 -71 -28.5 -115t-100.5 -100l-145 -117q-86 -70 -111 -97q-74 -81 -74 -193q0 -91 61 -146t154 -55q102 0 184 48t138 122l35 -109 q-70 -81 -161 -130.5t-224 -49.5q-149 0 -238.5 87t-89.5 224zM477 961q0 66 36 102.5t99 36.5q44 0 68.5 -22.5t24.5 -65.5q0 -66 -35.5 -104t-98.5 -38q-44 0 -69 24t-25 67z" />
<glyph unicode="&#xc0;" horiz-adv-x="1411" d="M-43 0l825 1393h158l303 -1393h-137l-74 338h-731l-201 -338h-143zM360 446h654l-176 805zM682 1839h137l113 -280h-119z" />
<glyph unicode="&#xc1;" horiz-adv-x="1411" d="M-43 0l825 1393h158l303 -1393h-137l-74 338h-731l-201 -338h-143zM360 446h654l-176 805zM774 1559l213 280h152l-230 -280h-135z" />
<glyph unicode="&#xc2;" horiz-adv-x="1411" d="M-43 0l825 1393h158l303 -1393h-137l-74 338h-731l-201 -338h-143zM360 446h654l-176 805zM588 1559l266 280h139l168 -280h-117l-131 200l-198 -200h-127z" />
<glyph unicode="&#xc3;" horiz-adv-x="1411" d="M-43 0l825 1393h158l303 -1393h-137l-74 338h-731l-201 -338h-143zM360 446h654l-176 805zM545 1669q38 59 92 99t115 40q39 0 79.5 -21.5t68.5 -48t63 -48t63 -21.5q88 0 152 100l45 -63q-97 -139 -207 -139q-37 0 -77.5 21.5t-70 48t-65 48t-62.5 21.5q-47 0 -83 -27 t-72 -75z" />
<glyph unicode="&#xc4;" horiz-adv-x="1411" d="M-43 0l825 1393h158l303 -1393h-137l-74 338h-731l-201 -338h-143zM360 446h654l-176 805zM555 1677q0 105 104 105q74 0 74 -66q0 -53 -28.5 -79.5t-73.5 -26.5q-76 0 -76 67zM1059 1677q0 105 106 105q72 0 72 -66q0 -53 -28.5 -79.5t-73.5 -26.5q-76 0 -76 67z" />
<glyph unicode="&#xc5;" horiz-adv-x="1413" d="M-43 0l805 1358q-37 23 -57.5 62t-20.5 85q0 91 69 159.5t158 68.5q74 0 122 -51t48 -123q0 -65 -37.5 -121t-95.5 -84l295 -1354h-137l-74 338h-731l-201 -338h-143zM360 446h654l-176 805zM756 1511q0 -45 29.5 -76.5t74.5 -31.5q58 0 103 44t45 105q0 45 -29 77 t-74 32q-59 0 -104 -44.5t-45 -105.5z" />
<glyph unicode="&#xc6;" horiz-adv-x="2107" d="M-82 0l1102 1393h1102l-23 -125h-893l-84 -484h748l-21 -116h-749l-94 -543h890l-20 -125h-1026l59 338h-565l-270 -338h-156zM424 446h504l145 826z" />
<glyph unicode="&#xc7;" horiz-adv-x="1474" d="M137 588q0 170 67 323.5t179.5 263t265 174t318.5 64.5q161 0 290 -59t209 -166l-82 -94q-68 89 -178.5 138.5t-253.5 49.5q-136 0 -260.5 -54t-215 -145.5t-144 -218.5t-53.5 -266q0 -215 126.5 -351t339.5 -136q140 0 268.5 52.5t227.5 143.5l55 -106 q-241 -221 -567 -221h-22l-52 -117q36 8 68 8q68 0 105.5 -31.5t37.5 -83.5q0 -78 -64.5 -120t-164.5 -42q-72 0 -139 25l26 62q66 -25 121 -25q64 0 105 24.5t41 69.5q0 62 -105 62q-67 0 -123 -17l-4 8l80 183q-227 31 -364.5 197.5t-137.5 404.5z" />
<glyph unicode="&#xc8;" horiz-adv-x="1370" d="M113 0l245 1393h1026l-20 -125h-895l-84 -480h748l-21 -124h-750l-94 -539h893l-22 -125h-1026zM674 1839h137l113 -280h-119z" />
<glyph unicode="&#xc9;" horiz-adv-x="1370" d="M113 0l245 1393h1026l-20 -125h-895l-84 -480h748l-21 -124h-750l-94 -539h893l-22 -125h-1026zM762 1559l213 280h151l-229 -280h-135z" />
<glyph unicode="&#xca;" horiz-adv-x="1370" d="M113 0l245 1393h1026l-20 -125h-895l-84 -480h748l-21 -124h-750l-94 -539h893l-22 -125h-1026zM592 1559l266 280h139l168 -280h-116l-131 200l-199 -200h-127z" />
<glyph unicode="&#xcb;" horiz-adv-x="1370" d="M113 0l245 1393h1026l-20 -125h-895l-84 -480h748l-21 -124h-750l-94 -539h893l-22 -125h-1026zM567 1677q0 105 105 105q73 0 73 -66q0 -53 -28.5 -79.5t-73.5 -26.5q-76 0 -76 67zM1071 1677q0 54 29 79.5t78 25.5q71 0 71 -66q0 -53 -28.5 -79.5t-73.5 -26.5 q-76 0 -76 67z" />
<glyph unicode="&#xcc;" horiz-adv-x="577" d="M113 0l245 1393h140l-246 -1393h-139zM256 1839h137l113 -280h-119z" />
<glyph unicode="&#xcd;" horiz-adv-x="577" d="M113 0l245 1393h140l-246 -1393h-139zM369 1559l213 280h151l-229 -280h-135z" />
<glyph unicode="&#xce;" horiz-adv-x="577" d="M113 0l245 1393h140l-246 -1393h-139zM160 1559l266 280h139l168 -280h-117l-131 200l-198 -200h-127z" />
<glyph unicode="&#xcf;" horiz-adv-x="577" d="M113 0l245 1393h140l-246 -1393h-139zM145 1677q0 105 105 105q74 0 74 -66q0 -53 -28.5 -79.5t-74.5 -26.5q-76 0 -76 67zM649 1677q0 54 29 79.5t78 25.5q71 0 71 -66q0 -53 -28.5 -79.5t-73.5 -26.5q-76 0 -76 67z" />
<glyph unicode="&#xd0;" horiz-adv-x="1589" d="M111 641l20 115h127l113 637h510q267 -2 432.5 -156.5t165.5 -417.5q0 -156 -42 -288.5t-117.5 -229.5t-178.5 -165t-226.5 -102t-261.5 -34h-528l113 641h-127zM287 125h375q141 0 263 45.5t213 131t143 216.5t52 293q0 215 -127.5 336t-341.5 121h-377l-90 -512h346 l-18 -115h-348z" />
<glyph unicode="&#xd1;" horiz-adv-x="1654" d="M113 0l245 1393h125l746 -1182l207 1182h139l-246 -1393h-123l-747 1182l-207 -1182h-139zM659 1669q38 59 92 99t115 40q39 0 79.5 -21.5t69 -48t63.5 -48t63 -21.5q87 0 151 100l45 -63q-97 -139 -207 -139q-37 0 -77.5 21.5t-70 48t-64.5 48t-62 21.5q-80 0 -156 -102 z" />
<glyph unicode="&#xd2;" horiz-adv-x="1656" d="M135 582q0 173 67 328.5t179.5 265t264.5 173.5t317 64q261 0 425 -172t164 -434q0 -174 -67 -329t-180 -263.5t-265 -171.5t-317 -63q-172 0 -306.5 78.5t-208 215.5t-73.5 308zM276 594q0 -208 128 -344.5t337 -136.5q180 0 334.5 89.5t246 247t91.5 345.5 q0 211 -128.5 348t-338.5 137q-134 0 -257 -52.5t-214 -143t-145 -219t-54 -271.5zM801 1839h137l113 -280h-119z" />
<glyph unicode="&#xd3;" horiz-adv-x="1656" d="M135 582q0 173 67 328.5t179.5 265t264.5 173.5t317 64q261 0 425 -172t164 -434q0 -174 -67 -329t-180 -263.5t-265 -171.5t-317 -63q-172 0 -306.5 78.5t-208 215.5t-73.5 308zM276 594q0 -208 128 -344.5t337 -136.5q180 0 334.5 89.5t246 247t91.5 345.5 q0 211 -128.5 348t-338.5 137q-134 0 -257 -52.5t-214 -143t-145 -219t-54 -271.5zM928 1559l213 280h151l-229 -280h-135z" />
<glyph unicode="&#xd4;" horiz-adv-x="1656" d="M135 582q0 173 67 328.5t179.5 265t264.5 173.5t317 64q261 0 425 -172t164 -434q0 -174 -67 -329t-180 -263.5t-265 -171.5t-317 -63q-172 0 -306.5 78.5t-208 215.5t-73.5 308zM276 594q0 -208 128 -344.5t337 -136.5q180 0 334.5 89.5t246 247t91.5 345.5 q0 211 -128.5 348t-338.5 137q-134 0 -257 -52.5t-214 -143t-145 -219t-54 -271.5zM709 1559l266 280h139l168 -280h-117l-131 200l-198 -200h-127z" />
<glyph unicode="&#xd5;" horiz-adv-x="1656" d="M135 582q0 173 67 328.5t179.5 265t264.5 173.5t317 64q261 0 425 -172t164 -434q0 -174 -67 -329t-180 -263.5t-265 -171.5t-317 -63q-172 0 -306.5 78.5t-208 215.5t-73.5 308zM276 594q0 -208 128 -344.5t337 -136.5q180 0 334.5 89.5t246 247t91.5 345.5 q0 211 -128.5 348t-338.5 137q-134 0 -257 -52.5t-214 -143t-145 -219t-54 -271.5zM649 1669q38 59 92 99t115 40q39 0 79.5 -21.5t68.5 -48t63 -48t63 -21.5q88 0 152 100l45 -63q-97 -139 -207 -139q-37 0 -77.5 21.5t-70 48t-64.5 48t-62 21.5q-80 0 -156 -102z" />
<glyph unicode="&#xd6;" horiz-adv-x="1656" d="M135 582q0 173 67 328.5t179.5 265t264.5 173.5t317 64q261 0 425 -172t164 -434q0 -174 -67 -329t-180 -263.5t-265 -171.5t-317 -63q-172 0 -306.5 78.5t-208 215.5t-73.5 308zM276 594q0 -208 128 -344.5t337 -136.5q180 0 334.5 89.5t246 247t91.5 345.5 q0 211 -128.5 348t-338.5 137q-134 0 -257 -52.5t-214 -143t-145 -219t-54 -271.5zM707 1677q0 105 104 105q74 0 74 -66q0 -53 -28.5 -79.5t-74.5 -26.5q-75 0 -75 67zM1210 1677q0 54 29 79.5t78 25.5q72 0 72 -66q0 -53 -28.5 -79.5t-74.5 -26.5q-76 0 -76 67z" />
<glyph unicode="&#xd7;" horiz-adv-x="1042" d="M109 332l331 291l-227 286l94 78l228 -287l331 291l72 -84l-336 -291l229 -288l-94 -78l-225 289l-334 -291z" />
<glyph unicode="&#xd8;" horiz-adv-x="1656" d="M125 0l2 12l152 158q-144 166 -144 412q0 173 67 328.5t179.5 265t264.5 173.5t317 64q224 0 385 -135l108 115h115l-4 -13l-158 -163q143 -165 143 -410q0 -174 -67 -329t-180 -263.5t-265 -171.5t-317 -63q-224 0 -381 129l-104 -109h-113zM276 594q0 -188 105 -318 l866 900q-123 104 -301 104q-134 0 -257 -52.5t-214 -143t-145 -219t-54 -271.5zM442 213q124 -100 299 -100q180 0 334.5 89.5t246 247t91.5 345.5q0 191 -104 319z" />
<glyph unicode="&#xd9;" horiz-adv-x="1560" d="M185 372.5q-6 89.5 10 192.5l143 828h139l-143 -822q-24 -140 3.5 -242.5t116.5 -162.5t236 -60q111 0 203.5 36t157 100t106.5 148t60 183l143 820h139l-147 -828q-20 -122 -71.5 -226t-133 -186.5t-203 -130t-268.5 -47.5q-113 0 -203 28.5t-149.5 80.5t-96 125.5 t-42.5 163zM756 1839h137l113 -280h-119z" />
<glyph unicode="&#xda;" horiz-adv-x="1560" d="M185 372.5q-6 89.5 10 192.5l143 828h139l-143 -822q-24 -140 3.5 -242.5t116.5 -162.5t236 -60q111 0 203.5 36t157 100t106.5 148t60 183l143 820h139l-147 -828q-20 -122 -71.5 -226t-133 -186.5t-203 -130t-268.5 -47.5q-113 0 -203 28.5t-149.5 80.5t-96 125.5 t-42.5 163zM879 1559l213 280h151l-229 -280h-135z" />
<glyph unicode="&#xdb;" horiz-adv-x="1560" d="M185 372.5q-6 89.5 10 192.5l143 828h139l-143 -822q-24 -140 3.5 -242.5t116.5 -162.5t236 -60q111 0 203.5 36t157 100t106.5 148t60 183l143 820h139l-147 -828q-20 -122 -71.5 -226t-133 -186.5t-203 -130t-268.5 -47.5q-113 0 -203 28.5t-149.5 80.5t-96 125.5 t-42.5 163zM645 1559l266 280h140l168 -280h-117l-131 200l-199 -200h-127z" />
<glyph unicode="&#xdc;" horiz-adv-x="1560" d="M185 372.5q-6 89.5 10 192.5l143 828h139l-143 -822q-24 -140 3.5 -242.5t116.5 -162.5t236 -60q111 0 203.5 36t157 100t106.5 148t60 183l143 820h139l-147 -828q-20 -122 -71.5 -226t-133 -186.5t-203 -130t-268.5 -47.5q-113 0 -203 28.5t-149.5 80.5t-96 125.5 t-42.5 163zM616 1677q0 105 105 105q74 0 74 -66q0 -53 -28.5 -79.5t-74.5 -26.5q-76 0 -76 67zM1120 1677q0 54 29 79.5t78 25.5q71 0 71 -66q0 -53 -28.5 -79.5t-73.5 -26.5q-76 0 -76 67z" />
<glyph unicode="&#xdd;" horiz-adv-x="1380" d="M188 1380l2 13h148l358 -676l598 676h162l-2 -13l-702 -790l-105 -590h-139l104 588zM768 1559l213 280h152l-230 -280h-135z" />
<glyph unicode="&#xde;" horiz-adv-x="1370" d="M113 0l245 1393h140l-41 -226h434q86 0 158 -21t130 -64t91 -115.5t33 -169.5q0 -105 -30 -193.5t-82.5 -150.5t-123 -106t-151.5 -64.5t-168 -20.5h-451l-45 -262h-139zM319 385h426q83 0 155.5 24t130.5 71t92 125t34 177q0 134 -81 198t-214 64h-426z" />
<glyph unicode="&#xdf;" horiz-adv-x="1341" d="M20 -385l236 1321q46 256 191.5 397.5t359.5 141.5q174 0 282.5 -101t108.5 -248q0 -69 -26 -130.5t-63 -103t-74 -74t-63 -56.5t-26 -39q0 -12 23.5 -34.5t57 -53.5t67 -69.5t57 -93.5t23.5 -114q0 -178 -125.5 -278t-319.5 -100q-97 0 -172.5 20t-118.5 47l43 117 q95 -64 232 -64t225 71t88 191q0 49 -24 96t-58.5 81.5t-68.5 64.5t-58 57.5t-24 49.5q0 27 27 58.5t65.5 64t77 70.5t65.5 93.5t27 118.5q0 103 -72.5 168.5t-183.5 65.5q-157 0 -263.5 -110t-140.5 -300l-235 -1325h-140z" />
<glyph unicode="&#xe0;" horiz-adv-x="1329" d="M111 440q0 187 79 336t217 231.5t308 82.5q105 0 192.5 -41t143.5 -107l22 129h139l-188 -1071h-139l20 121q-155 -141 -360 -141q-199 0 -316.5 130.5t-117.5 329.5zM254 455q0 -156 89 -253.5t243 -97.5q95 0 186 42t156 102l100 575q-42 59 -119 100.5t-170 41.5 q-210 0 -347.5 -144.5t-137.5 -365.5zM649 1518h137l113 -281h-119z" />
<glyph unicode="&#xe1;" horiz-adv-x="1329" d="M111 440q0 187 79 336t217 231.5t308 82.5q105 0 192.5 -41t143.5 -107l22 129h139l-188 -1071h-139l20 121q-155 -141 -360 -141q-199 0 -316.5 130.5t-117.5 329.5zM254 455q0 -156 89 -253.5t243 -97.5q95 0 186 42t156 102l100 575q-42 59 -119 100.5t-170 41.5 q-210 0 -347.5 -144.5t-137.5 -365.5zM741 1237l213 281h152l-229 -281h-136z" />
<glyph unicode="&#xe2;" horiz-adv-x="1329" d="M111 440q0 187 79 336t217 231.5t308 82.5q105 0 192.5 -41t143.5 -107l22 129h139l-188 -1071h-139l20 121q-155 -141 -360 -141q-199 0 -316.5 130.5t-117.5 329.5zM254 455q0 -156 89 -253.5t243 -97.5q95 0 186 42t156 102l100 575q-42 59 -119 100.5t-170 41.5 q-210 0 -347.5 -144.5t-137.5 -365.5zM530 1237l267 281h139l168 -281h-117l-131 201l-199 -201h-127z" />
<glyph unicode="&#xe3;" horiz-adv-x="1329" d="M111 440q0 187 79 336t217 231.5t308 82.5q105 0 192.5 -41t143.5 -107l22 129h139l-188 -1071h-139l20 121q-155 -141 -360 -141q-199 0 -316.5 130.5t-117.5 329.5zM254 455q0 -156 89 -253.5t243 -97.5q95 0 186 42t156 102l100 575q-42 59 -119 100.5t-170 41.5 q-210 0 -347.5 -144.5t-137.5 -365.5zM504 1348q38 59 92 99t115 40q39 0 79.5 -21.5t68.5 -48t63 -48t63 -21.5q88 0 152 100l45 -64q-97 -139 -207 -139q-37 0 -77.5 21.5t-70 48t-65 48t-62.5 21.5q-47 0 -83 -27t-72 -75z" />
<glyph unicode="&#xe4;" horiz-adv-x="1329" d="M111 440q0 187 79 336t217 231.5t308 82.5q105 0 192.5 -41t143.5 -107l22 129h139l-188 -1071h-139l20 121q-155 -141 -360 -141q-199 0 -316.5 130.5t-117.5 329.5zM254 455q0 -156 89 -253.5t243 -97.5q95 0 186 42t156 102l100 575q-42 59 -119 100.5t-170 41.5 q-210 0 -347.5 -144.5t-137.5 -365.5zM498 1356q0 104 104 104q74 0 74 -65q0 -53 -29 -80t-74 -27q-75 0 -75 68zM1001 1356q0 104 107 104q72 0 72 -65q0 -53 -29 -80t-74 -27q-76 0 -76 68z" />
<glyph unicode="&#xe5;" horiz-adv-x="1329" d="M111 440q0 187 79 336t217 231.5t308 82.5q105 0 192.5 -41t143.5 -107l22 129h139l-188 -1071h-139l20 121q-155 -141 -360 -141q-199 0 -316.5 130.5t-117.5 329.5zM254 455q0 -156 89 -253.5t243 -97.5q95 0 186 42t156 102l100 575q-42 59 -119 100.5t-170 41.5 q-210 0 -347.5 -144.5t-137.5 -365.5zM647 1346q0 90 68.5 158.5t158.5 68.5q74 0 122 -51t48 -123q0 -91 -69 -159.5t-158 -68.5q-74 0 -122 51.5t-48 123.5zM719 1352q0 -45 29.5 -77t74.5 -32q58 0 103 44.5t45 105.5q0 45 -29 76.5t-74 31.5q-59 0 -104 -44t-45 -105z " />
<glyph unicode="&#xe6;" horiz-adv-x="1882" d="M53 268q0 203 159 309.5t427 106.5q133 0 209 -18q19 108 11 177.5t-58 102.5t-152 33q-92 0 -187 -21t-169 -55l-6 123q175 74 389 74q92 0 153 -21t90.5 -61t40.5 -83.5t11 -103.5q29 49 67.5 93t92 85.5t123.5 66t147 24.5q93 0 165.5 -29.5t116.5 -80t66.5 -114.5 t22.5 -137q0 -131 -56 -254h-762q-15 -85 -6.5 -157.5t38 -125t96 -82.5t167.5 -30q178 0 363 133l39 -104q-201 -148 -426 -148q-152 0 -247.5 63t-123.5 177q-236 -242 -469 -242q-154 0 -243 83t-89 216zM197 289q0 -92 61 -145.5t168 -53.5q104 0 199.5 61.5 t154.5 139.5l45 260q-82 20 -202 20q-123 0 -216 -27t-151.5 -92t-58.5 -163zM987 598h631q24 66 24 129q0 110 -65 182t-191 72q-81 0 -151.5 -34t-119.5 -90t-81.5 -122t-46.5 -137z" />
<glyph unicode="&#xe7;" horiz-adv-x="1179" d="M111 449q0 135 50.5 255.5t137 207t207.5 137.5t256 51q118 0 214 -38.5t157 -107.5l-82 -100q-48 53 -125.5 85t-171.5 32q-212 0 -358 -147t-146 -361q0 -160 95 -261.5t255 -101.5q181 0 332 123l53 -110q-179 -142 -405 -142h-31l-49 -108q36 8 67 8q68 0 106 -31.5 t38 -83.5q0 -78 -65 -120t-165 -42q-72 0 -139 25l27 62q66 -25 120 -25q64 0 105 24.5t41 69.5q0 62 -105 62q-66 0 -122 -17l-5 8l76 177q-169 30 -268.5 159.5t-99.5 309.5z" />
<glyph unicode="&#xe8;" horiz-adv-x="1259" d="M106 426q0 134 47 257t129 215t202 147t259 55q196 0 300 -102.5t104 -266.5q0 -60 -14 -130t-33 -116h-852q-20 -174 70 -283.5t280 -109.5q218 0 389 129l43 -108q-198 -142 -448 -142q-121 0 -214 35.5t-149 98t-84.5 143.5t-28.5 178zM270 598h723q21 82 21 131 q0 107 -70 179.5t-209 72.5q-174 0 -304.5 -111.5t-160.5 -271.5zM610 1518h138l112 -281h-119z" />
<glyph unicode="&#xe9;" horiz-adv-x="1259" d="M106 426q0 134 47 257t129 215t202 147t259 55q196 0 300 -102.5t104 -266.5q0 -60 -14 -130t-33 -116h-852q-20 -174 70 -283.5t280 -109.5q218 0 389 129l43 -108q-198 -142 -448 -142q-121 0 -214 35.5t-149 98t-84.5 143.5t-28.5 178zM270 598h723q21 82 21 131 q0 107 -70 179.5t-209 72.5q-174 0 -304.5 -111.5t-160.5 -271.5zM686 1237l213 281h152l-230 -281h-135z" />
<glyph unicode="&#xea;" horiz-adv-x="1259" d="M106 426q0 134 47 257t129 215t202 147t259 55q196 0 300 -102.5t104 -266.5q0 -60 -14 -130t-33 -116h-852q-20 -174 70 -283.5t280 -109.5q218 0 389 129l43 -108q-198 -142 -448 -142q-121 0 -214 35.5t-149 98t-84.5 143.5t-28.5 178zM270 598h723q21 82 21 131 q0 107 -70 179.5t-209 72.5q-174 0 -304.5 -111.5t-160.5 -271.5zM506 1237l266 281h139l168 -281h-116l-132 201l-198 -201h-127z" />
<glyph unicode="&#xeb;" horiz-adv-x="1259" d="M106 426q0 134 47 257t129 215t202 147t259 55q196 0 300 -102.5t104 -266.5q0 -60 -14 -130t-33 -116h-852q-20 -174 70 -283.5t280 -109.5q218 0 389 129l43 -108q-198 -142 -448 -142q-121 0 -214 35.5t-149 98t-84.5 143.5t-28.5 178zM270 598h723q21 82 21 131 q0 107 -70 179.5t-209 72.5q-174 0 -304.5 -111.5t-160.5 -271.5zM492 1356q0 104 104 104q74 0 74 -65q0 -53 -29 -80t-74 -27q-75 0 -75 68zM995 1356q0 104 107 104q72 0 72 -65q0 -53 -29 -80t-74 -27q-76 0 -76 68z" />
<glyph unicode="&#xec;" horiz-adv-x="536" d="M90 0l191 1071h139l-189 -1071h-141zM205 1518h137l113 -281h-119z" />
<glyph unicode="&#xed;" horiz-adv-x="536" d="M90 0l191 1071h139l-189 -1071h-141zM315 1237l213 281h152l-229 -281h-136z" />
<glyph unicode="&#xee;" horiz-adv-x="536" d="M86 1237l266 281h140l167 -281h-116l-131 201l-199 -201h-127zM90 0l191 1071h139l-189 -1071h-141z" />
<glyph unicode="&#xef;" horiz-adv-x="536" d="M63 1356q0 104 105 104q74 0 74 -65q0 -53 -29 -80t-74 -27q-76 0 -76 68zM90 0l191 1071h139l-189 -1071h-141zM567 1356q0 104 107 104q71 0 71 -65q0 -53 -28.5 -80t-73.5 -27q-76 0 -76 68z" />
<glyph unicode="&#xf0;" horiz-adv-x="1284" d="M109 389q0 244 145 392.5t371 148.5q80 0 148 -26.5t114.5 -71t75 -83.5t49.5 -83q12 73 12 151q0 236 -137 400l-154 -138l-37 43l152 138q-80 80 -178 116l67 99q119 -36 211 -125l152 137l41 -43l-152 -135q82 -93 129 -217.5t47 -268.5q0 -174 -48 -328.5 t-133 -268.5t-210.5 -180t-273.5 -66q-176 0 -283.5 115.5t-107.5 293.5zM248 403q0 -127 73 -210.5t195 -83.5q169 0 289.5 116t175.5 305q-14 33 -30.5 64.5t-48 73t-67 71.5t-88.5 51t-112 21q-167 0 -277 -110t-110 -298z" />
<glyph unicode="&#xf1;" d="M92 0l189 1071h137l-35 -197q162 216 426 216q138 0 223.5 -63.5t112.5 -170t2 -246.5l-107 -610h-139l107 598q29 162 -34 261t-218 99q-138 0 -245.5 -76.5t-160.5 -193.5l-121 -688h-137zM473 1348q38 59 92 99t115 40q39 0 79.5 -21.5t68.5 -48t63 -48t63 -21.5 q88 0 152 100l45 -64q-97 -139 -207 -139q-37 0 -77.5 21.5t-70 48t-64.5 48t-62 21.5q-80 0 -156 -102z" />
<glyph unicode="&#xf2;" horiz-adv-x="1366" d="M106 446q0 183 87 333.5t236.5 235.5t328.5 85q214 0 344.5 -133.5t130.5 -345.5q0 -183 -86.5 -332.5t-236.5 -233.5t-332 -84q-211 0 -341.5 132.5t-130.5 342.5zM244 459q0 -155 95 -257t253 -102q212 0 358 146t146 364q0 156 -96 258.5t-255 102.5 q-102 0 -194.5 -39t-160 -106.5t-107 -163t-39.5 -203.5zM629 1518h137l113 -281h-119z" />
<glyph unicode="&#xf3;" horiz-adv-x="1366" d="M106 446q0 183 87 333.5t236.5 235.5t328.5 85q214 0 344.5 -133.5t130.5 -345.5q0 -183 -86.5 -332.5t-236.5 -233.5t-332 -84q-211 0 -341.5 132.5t-130.5 342.5zM244 459q0 -155 95 -257t253 -102q212 0 358 146t146 364q0 156 -96 258.5t-255 102.5 q-102 0 -194.5 -39t-160 -106.5t-107 -163t-39.5 -203.5zM766 1237l213 281h151l-229 -281h-135z" />
<glyph unicode="&#xf4;" horiz-adv-x="1366" d="M106 446q0 183 87 333.5t236.5 235.5t328.5 85q214 0 344.5 -133.5t130.5 -345.5q0 -183 -86.5 -332.5t-236.5 -233.5t-332 -84q-211 0 -341.5 132.5t-130.5 342.5zM244 459q0 -155 95 -257t253 -102q212 0 358 146t146 364q0 156 -96 258.5t-255 102.5 q-102 0 -194.5 -39t-160 -106.5t-107 -163t-39.5 -203.5zM549 1237l266 281h139l168 -281h-116l-132 201l-198 -201h-127z" />
<glyph unicode="&#xf5;" horiz-adv-x="1366" d="M106 446q0 183 87 333.5t236.5 235.5t328.5 85q214 0 344.5 -133.5t130.5 -345.5q0 -183 -86.5 -332.5t-236.5 -233.5t-332 -84q-211 0 -341.5 132.5t-130.5 342.5zM244 459q0 -155 95 -257t253 -102q212 0 358 146t146 364q0 156 -96 258.5t-255 102.5 q-102 0 -194.5 -39t-160 -106.5t-107 -163t-39.5 -203.5zM530 1348q38 59 92 99t115 40q39 0 79.5 -21.5t69 -48t63.5 -48t63 -21.5q87 0 151 100l45 -64q-97 -139 -207 -139q-37 0 -77.5 21.5t-70 48t-64.5 48t-62 21.5q-80 0 -156 -102z" />
<glyph unicode="&#xf6;" horiz-adv-x="1366" d="M106 446q0 183 87 333.5t236.5 235.5t328.5 85q214 0 344.5 -133.5t130.5 -345.5q0 -183 -86.5 -332.5t-236.5 -233.5t-332 -84q-211 0 -341.5 132.5t-130.5 342.5zM244 459q0 -155 95 -257t253 -102q212 0 358 146t146 364q0 156 -96 258.5t-255 102.5 q-102 0 -194.5 -39t-160 -106.5t-107 -163t-39.5 -203.5zM489 1356q0 104 105 104q74 0 74 -65q0 -53 -29 -80t-74 -27q-76 0 -76 68zM993 1356q0 104 107 104q71 0 71 -65q0 -53 -28.5 -80t-73.5 -27q-76 0 -76 68z" />
<glyph unicode="&#xf7;" horiz-adv-x="1220" d="M147 561l21 115h907l-20 -115h-908zM426 233q0 63 33.5 99.5t91.5 36.5q90 0 90 -86q0 -63 -34.5 -98t-94.5 -35q-41 0 -63.5 21.5t-22.5 61.5zM553 954q0 62 33.5 99t91.5 37q42 0 66 -24t24 -65q0 -63 -34.5 -98t-94.5 -35q-41 0 -63.5 22.5t-22.5 63.5z" />
<glyph unicode="&#xf8;" horiz-adv-x="1366" d="M106 446q0 183 87 333.5t236.5 235.5t328.5 85q192 0 323 -115l82 84h88l-2 -12l-119 -123q103 -128 103 -313q0 -183 -86.5 -332.5t-236.5 -233.5t-332 -84q-170 0 -293 90l-60 -61h-88l2 12l92 97q-125 131 -125 337zM244 459q0 -151 88 -248l651 672q-94 88 -238 88 q-102 0 -194.5 -39t-160 -106.5t-107 -163t-39.5 -203.5zM383 164q86 -64 209 -64q212 0 358 146t146 364q0 124 -66 219z" />
<glyph unicode="&#xf9;" d="M158 463l108 608h140l-107 -598q-29 -163 34 -261.5t220 -98.5q136 0 243.5 76.5t159.5 193.5l121 688h137l-188 -1071h-137l35 197q-162 -215 -424 -215q-205 0 -292 133t-50 348zM586 1518h137l113 -281h-119z" />
<glyph unicode="&#xfa;" d="M158 463l108 608h140l-107 -598q-29 -163 34 -261.5t220 -98.5q136 0 243.5 76.5t159.5 193.5l121 688h137l-188 -1071h-137l35 197q-162 -215 -424 -215q-205 0 -292 133t-50 348zM715 1237l213 281h151l-229 -281h-135z" />
<glyph unicode="&#xfb;" d="M158 463l108 608h140l-107 -598q-29 -163 34 -261.5t220 -98.5q136 0 243.5 76.5t159.5 193.5l121 688h137l-188 -1071h-137l35 197q-162 -215 -424 -215q-205 0 -292 133t-50 348zM479 1237l266 281h140l168 -281h-117l-131 201l-199 -201h-127z" />
<glyph unicode="&#xfc;" d="M158 463l108 608h140l-107 -598q-29 -163 34 -261.5t220 -98.5q136 0 243.5 76.5t159.5 193.5l121 688h137l-188 -1071h-137l35 197q-162 -215 -424 -215q-205 0 -292 133t-50 348zM453 1356q0 104 104 104q74 0 74 -65q0 -53 -29 -80t-74 -27q-75 0 -75 68zM956 1356 q0 104 107 104q72 0 72 -65q0 -53 -29 -80t-74 -27q-76 0 -76 68z" />
<glyph unicode="&#xfd;" horiz-adv-x="1226" d="M-113 -330l43 113q91 -68 203 -68q91 0 152.5 50.5t126.5 160.5l47 84l-314 1061h148l250 -919l530 919h150l-680 -1157q-38 -64 -69 -109.5t-70.5 -87.5t-80 -67.5t-92.5 -40.5t-112 -15q-134 0 -232 76zM643 1237l213 281h152l-230 -281h-135z" />
<glyph unicode="&#xfe;" d="M25 -385l323 1839h139l-90 -506q160 142 371 142q129 0 227.5 -61.5t149.5 -165.5t51 -232q0 -141 -46.5 -263t-127 -207t-193.5 -133t-243 -48q-109 0 -194 41.5t-138 109.5l-90 -516h-139zM274 250q41 -60 119 -103t174 -43q210 0 347 144.5t137 369.5q0 154 -88 250.5 t-242 96.5q-96 0 -189.5 -43.5t-156.5 -106.5z" />
<glyph unicode="&#xff;" horiz-adv-x="1226" d="M-113 -330l43 113q91 -68 203 -68q91 0 152.5 50.5t126.5 160.5l47 84l-314 1061h148l250 -919l530 919h150l-680 -1157q-38 -64 -69 -109.5t-70.5 -87.5t-80 -67.5t-92.5 -40.5t-112 -15q-134 0 -232 76zM387 1356q0 104 105 104q73 0 73 -65q0 -53 -28.5 -80t-73.5 -27 q-76 0 -76 68zM891 1356q0 104 106 104q72 0 72 -65q0 -53 -28.5 -80t-73.5 -27q-76 0 -76 68z" />
<glyph unicode="&#x152;" horiz-adv-x="2387" d="M133 573q0 174 68 331t181 268t266 176t317 65q234 0 389 -149l22 129h1026l-22 -125h-891l-86 -484h747l-20 -116h-748l-94 -543h893l-24 -125h-1027l23 127q-211 -147 -440 -147q-171 0 -304.5 78t-204.5 213t-71 302zM272 596q0 -210 129 -347.5t340 -137.5 q120 0 233.5 44.5t205.5 123.5l145 831q-62 79 -160 124.5t-219 45.5q-181 0 -335.5 -89.5t-246.5 -247.5t-92 -347z" />
<glyph unicode="&#x153;" horiz-adv-x="2254" d="M109 446q0 137 50.5 258.5t137 208t206.5 137t255 50.5q178 0 294 -95.5t146 -254.5q77 157 222.5 253.5t324.5 96.5q132 0 224 -52.5t133.5 -135t41.5 -185.5q0 -126 -53 -242h-844q-12 -87 1.5 -157t54 -124.5t117.5 -84t186 -29.5q195 0 379 129l40 -108 q-200 -140 -444 -140q-395 0 -451 330q-80 -155 -225.5 -242.5t-326.5 -87.5q-210 0 -339.5 135t-129.5 340zM246 459q0 -155 94 -257t252 -102q212 0 358 147.5t146 362.5q0 156 -96 258.5t-255 102.5q-136 0 -250.5 -67.5t-181.5 -185.5t-67 -259zM1268 598h723 q24 70 24 129q0 110 -76.5 182t-212.5 72q-172 0 -296 -108.5t-162 -274.5z" />
<glyph unicode="&#x178;" horiz-adv-x="1380" d="M188 1380l2 13h148l358 -676l598 676h162l-2 -13l-702 -790l-105 -590h-139l104 588zM502 1677q0 105 104 105q74 0 74 -66q0 -53 -28.5 -79.5t-73.5 -26.5q-76 0 -76 67zM1006 1677q0 105 106 105q72 0 72 -66q0 -53 -28.5 -79.5t-74.5 -26.5q-75 0 -75 67z" />
<glyph unicode="&#x2c6;" horiz-adv-x="1191" d="M541 1237l266 281h139l168 -281h-117l-131 201l-198 -201h-127z" />
<glyph unicode="&#x2dc;" horiz-adv-x="1191" d="M512 1348q38 59 92 99t115 40q39 0 79.5 -21.5t68.5 -48t63 -48t63 -21.5q88 0 152 100l45 -64q-97 -139 -207 -139q-37 0 -77.5 21.5t-70 48t-64.5 48t-62 21.5q-80 0 -156 -102z" />
<glyph unicode="&#x2000;" horiz-adv-x="919" />
<glyph unicode="&#x2001;" horiz-adv-x="1839" />
<glyph unicode="&#x2002;" horiz-adv-x="919" />
<glyph unicode="&#x2003;" horiz-adv-x="1839" />
<glyph unicode="&#x2004;" horiz-adv-x="613" />
<glyph unicode="&#x2005;" horiz-adv-x="459" />
<glyph unicode="&#x2006;" horiz-adv-x="306" />
<glyph unicode="&#x2007;" horiz-adv-x="306" />
<glyph unicode="&#x2008;" horiz-adv-x="229" />
<glyph unicode="&#x2009;" horiz-adv-x="367" />
<glyph unicode="&#x200a;" horiz-adv-x="102" />
<glyph unicode="&#x2010;" horiz-adv-x="1079" d="M162 561l20 117h740l-21 -117h-739z" />
<glyph unicode="&#x2011;" horiz-adv-x="1079" d="M162 561l20 117h740l-21 -117h-739z" />
<glyph unicode="&#x2012;" horiz-adv-x="1079" d="M162 561l20 117h740l-21 -117h-739z" />
<glyph unicode="&#x2013;" horiz-adv-x="1263" d="M162 561l20 117h924l-21 -117h-923z" />
<glyph unicode="&#x2014;" horiz-adv-x="1724" d="M162 561l20 117h1385l-21 -117h-1384z" />
<glyph unicode="&#x2018;" horiz-adv-x="520" d="M205 961q0 77 75 225t136 227l76 -35l-140 -286q40 -6 62 -30.5t22 -57.5q0 -64 -36.5 -102t-98.5 -38q-46 0 -71 27t-25 70z" />
<glyph unicode="&#x2019;" horiz-adv-x="514" d="M211 895l145 289q-41 4 -62.5 28t-21.5 58q0 65 35.5 102t98.5 37q46 0 71 -26.5t25 -69.5q0 -76 -74.5 -220.5t-138.5 -232.5z" />
<glyph unicode="&#x201a;" horiz-adv-x="536" d="M6 -313l146 288q-41 4 -62.5 28t-21.5 58q0 65 35 102.5t98 37.5q46 0 71 -27t25 -70q0 -76 -74.5 -220t-138.5 -232z" />
<glyph unicode="&#x201c;" horiz-adv-x="868" d="M209 981q0 73 73 215.5t130 216.5l67 -31l-137 -280q40 -4 61 -27t21 -55q0 -59 -34 -94t-93 -35q-42 0 -65 25t-23 65zM575 981q0 73 71.5 215t127.5 217l70 -31l-139 -280q41 -4 61 -26.5t20 -55.5q0 -59 -32 -94t-90 -35q-43 0 -66 25t-23 65z" />
<glyph unicode="&#x201d;" horiz-adv-x="862" d="M215 920l139 278q-40 4 -61 27t-21 55q0 60 33.5 94.5t91.5 34.5q43 0 65.5 -25t22.5 -65q0 -70 -71 -213t-127 -219zM580 920l137 278q-38 4 -59 27t-21 55q0 60 33.5 94.5t91.5 34.5q43 0 65.5 -25t22.5 -65q0 -71 -71.5 -212t-129.5 -220z" />
<glyph unicode="&#x201e;" horiz-adv-x="886" d="M8 -317l139 282q-39 3 -60 25t-21 55q0 60 33 95.5t91 35.5q42 0 65.5 -25.5t23.5 -64.5q0 -72 -71.5 -213t-129.5 -221zM373 -317l137 282q-39 3 -59.5 25t-20.5 55q0 60 33.5 95.5t91.5 35.5q43 0 65.5 -25t22.5 -65q0 -72 -71.5 -213t-129.5 -221z" />
<glyph unicode="&#x2022;" horiz-adv-x="757" d="M207 575q0 105 54.5 164.5t148.5 59.5q68 0 105.5 -37.5t37.5 -102.5q0 -105 -55 -164t-152 -59q-67 0 -103 36.5t-36 102.5z" />
<glyph unicode="&#x2026;" horiz-adv-x="1427" d="M70 55q0 64 34 102t95 38q44 0 68 -24.5t24 -66.5q0 -64 -36 -99.5t-97 -35.5q-43 0 -65.5 22.5t-22.5 63.5zM516 55q0 64 34.5 102t94.5 38q44 0 68 -24.5t24 -66.5q0 -64 -35.5 -99.5t-97.5 -35.5q-43 0 -65.5 22.5t-22.5 63.5zM963 55q0 64 34.5 102t94.5 38 q44 0 68 -24.5t24 -66.5q0 -64 -35 -99.5t-96 -35.5q-43 0 -66.5 22.5t-23.5 63.5z" />
<glyph unicode="&#x202f;" horiz-adv-x="367" />
<glyph unicode="&#x2039;" horiz-adv-x="643" d="M125 604l4 31l389 407h12l41 -49l-321 -381l190 -379l-59 -34h-12z" />
<glyph unicode="&#x203a;" horiz-adv-x="641" d="M76 246l321 381l-190 381l59 34h13l243 -407l-4 -31l-389 -405h-12z" />
<glyph unicode="&#x205f;" horiz-adv-x="459" />
<glyph unicode="&#x20ac;" horiz-adv-x="1269" d="M109 518l16 92h94q7 89 17 152h-84l16 94h88q67 263 235 410t396 147q217 0 364 -158l-71 -106q-117 135 -297 135q-171 0 -298.5 -110.5t-185.5 -317.5h600l-59 -94h-561q-10 -58 -17 -152h488l-57 -92h-433q1 -197 84 -302t228 -105q187 0 354 120l35 -114 q-195 -137 -410 -137q-202 0 -318 143t-116 395h-108z" />
<glyph unicode="&#x2122;" horiz-adv-x="1671" d="M252 1272l16 86h518l-14 -86h-213l-94 -541h-86l94 541h-221zM836 731l110 627h74l199 -322l313 322h80l-111 -627h-86l88 492l-291 -303h-18l-184 303l-88 -492h-86z" />
<glyph unicode="&#xe000;" horiz-adv-x="1075" d="M0 0v1075h1075v-1075h-1075z" />
<glyph unicode="&#xfb01;" horiz-adv-x="1419" d="M137 -385l223 1278h-217l21 113h217l18 106q28 165 121 264t256 99q85 0 153 -34.5t103 -78.5l-57 -107q-80 95 -195 95q-198 0 -241 -238l-19 -106h389l-20 -113h-389l-224 -1278h-139zM979 0l190 1071h140l-189 -1071h-141zM1198 1356q0 108 113 108q78 0 78 -67 q0 -56 -30 -82.5t-79 -26.5q-82 0 -82 68z" />
<glyph unicode="&#xfb02;" horiz-adv-x="1513" d="M137 -385l223 1278h-217l21 113h217l18 106q28 165 121 264t256 99q85 0 153 -34.5t103 -78.5l-57 -107q-80 95 -195 95q-198 0 -241 -238l-19 -106h389l-20 -113h-389l-224 -1278h-139zM1014 227l215 1227h139l-211 -1204q-13 -76 11.5 -113t78.5 -37q67 0 142 45 l-3 -116q-85 -49 -194 -49q-102 0 -152 60t-26 187z" />
</font>
</defs>
</svg>
