<?xml version="1.0" standalone="no"?>
<!DOCTYPE svg PUBLIC "-//W3C//DTD SVG 1.1//EN" "http://www.w3.org/Graphics/SVG/1.1/DTD/svg11.dtd" >
<svg xmlns="http://www.w3.org/2000/svg">
<metadata></metadata>
<defs>
<font id="pluto_sansregular_italic" horiz-adv-x="1341" >
<font-face units-per-em="2048" ascent="1536" descent="-512" />
<missing-glyph horiz-adv-x="491" />
<glyph horiz-adv-x="0" />
<glyph horiz-adv-x="0" />
<glyph unicode="&#xd;" horiz-adv-x="2048" />
<glyph unicode=" "  horiz-adv-x="491" />
<glyph unicode="&#x09;" horiz-adv-x="491" />
<glyph unicode="&#xa0;" horiz-adv-x="491" />
<glyph unicode="!" horiz-adv-x="581" d="M61 86q0 84 44.5 130t125.5 46q58 0 89.5 -30.5t31.5 -84.5q0 -81 -46 -126.5t-126 -45.5q-58 0 -88.5 29t-30.5 82zM182 436l140 957h215l-201 -957h-154z" />
<glyph unicode="&#x22;" horiz-adv-x="901" d="M211 887l80 506h170l-99 -506h-151zM635 887l78 506h170l-97 -506h-151z" />
<glyph unicode="#" horiz-adv-x="1390" d="M37 322l29 161h210l179 426h-162l26 162h205l135 322h164l-2 -17l-129 -305h336l135 322h166l-4 -17l-129 -305h193l-29 -162h-232l-178 -426h183l-29 -161h-221l-133 -322h-170l4 18l127 304h-332l-135 -322h-168l4 18l127 304h-170zM446 483h334l178 426h-333z" />
<glyph unicode="$" horiz-adv-x="1226" d="M41 100l76 203q63 -47 158 -83.5t200 -43.5l78 438l-139 41q-122 35 -187 115t-65 195q0 84 33 159t97 136t167 101t233 48l31 166h131l-29 -166q242 -16 392 -111l-87 -194q-157 91 -339 108l-76 -421l80 -23q153 -43 230 -121t77 -198q0 -189 -147.5 -316t-381.5 -149 l-43 -248h-133l43 246q-120 7 -229.5 42t-169.5 76zM389 993q0 -105 152 -151l49 -15l67 383q-132 -13 -200 -73t-68 -144zM608 182q121 17 192.5 79t71.5 153q0 111 -194 166z" />
<glyph unicode="%" horiz-adv-x="1740" d="M154 993q0 116 56.5 213t152 152t206.5 55q138 0 225 -89t87 -222q0 -175 -123 -294.5t-297 -119.5q-135 0 -221 87t-86 218zM317 0l2 18l949 1375h186l-2 -17l-944 -1376h-191zM319 1012q0 -71 44 -118.5t116 -47.5q97 0 165.5 69.5t68.5 167.5q0 73 -44 121.5 t-116 48.5q-97 0 -165.5 -70t-68.5 -171zM893 285q0 116 57 213t152.5 152t206.5 55q137 0 224 -89.5t87 -222.5q0 -175 -123 -294t-297 -119q-135 0 -221 87t-86 218zM1059 305q0 -72 44 -120t116 -48q97 0 165 70t68 168q0 73 -44 121.5t-116 48.5q-97 0 -165 -70 t-68 -170z" />
<glyph unicode="&#x26;" horiz-adv-x="1497" d="M80 317q0 88 28 157t82.5 118.5t117 83.5t149.5 65q-117 145 -117 267q0 174 129.5 289.5t347.5 115.5q166 0 273.5 -89t107.5 -222q0 -69 -20 -127t-52.5 -100.5t-82.5 -78.5t-102 -60.5t-118 -47.5l-39 -14l236 -268q153 156 266 387l158 -117q-131 -242 -301 -410 l209 -235l-6 -31h-263l-110 129q-225 -149 -481 -149q-188 0 -300 92.5t-112 244.5zM299 350q0 -84 62.5 -134t170.5 -50q166 0 322 104l-279 330q-52 -18 -86.5 -32t-73.5 -36.5t-62 -46.5t-38.5 -58.5t-15.5 -76.5zM551 1030q0 -55 30.5 -106t84.5 -113l102 35 q109 38 162 91t53 136q0 67 -51.5 111.5t-136.5 44.5q-117 0 -180.5 -57t-63.5 -142z" />
<glyph unicode="'" horiz-adv-x="479" d="M211 887l80 506h170l-99 -506h-151z" />
<glyph unicode="(" horiz-adv-x="626" d="M80 283q0 152 25.5 297.5t69 262t94.5 217.5t109.5 180.5t105.5 133t91 92.5l113 -90q-56 -66 -101.5 -126.5t-109 -170t-106.5 -220t-74 -264.5t-31 -316q0 -180 37 -346.5t82 -256.5l-137 -71q-62 78 -115 265.5t-53 412.5z" />
<glyph unicode=")" horiz-adv-x="628" d="M-82 -307q56 66 101.5 127.5t108.5 171.5t105.5 220.5t73.5 265t31 315.5q0 183 -36.5 347t-82.5 253l137 73q62 -82 116 -268.5t54 -409.5q0 -181 -37.5 -353.5t-92 -298t-126.5 -238.5t-129.5 -179t-111.5 -114z" />
<glyph unicode="*" horiz-adv-x="989" d="M172 1018l70 162l260 -90l43 303h174l-66 -303l291 92l17 -164l-287 -70l117 -248l-142 -92l-106 260l-195 -258l-119 88l201 252z" />
<glyph unicode="+" horiz-adv-x="1126" d="M86 535l31 170h379l69 393h170l-69 -393h381l-31 -170h-379l-72 -394h-170l72 394h-381z" />
<glyph unicode="," horiz-adv-x="559" d="M-2 -301l139 276q-42 7 -64 36.5t-22 70.5q0 82 45.5 130t124.5 48q58 0 90.5 -33.5t32.5 -87.5q0 -89 -78.5 -239t-154.5 -250z" />
<glyph unicode="-" horiz-adv-x="1081" d="M143 535l31 170h768l-29 -170h-770z" />
<glyph unicode="." horiz-adv-x="559" d="M53 86q0 84 44.5 130t125.5 46q58 0 89.5 -30.5t31.5 -84.5q0 -81 -46 -126.5t-126 -45.5q-58 0 -88.5 29t-30.5 82z" />
<glyph unicode="/" horiz-adv-x="1042" d="M-31 0l2 18l947 1375h188l-2 -17l-946 -1376h-189z" />
<glyph unicode="0" horiz-adv-x="1435" d="M133 524q0 152 27 284.5t84 244t140 191.5t201 124.5t261 44.5q240 0 364.5 -148.5t124.5 -398.5q0 -191 -44 -350t-130.5 -280t-225 -188.5t-317.5 -67.5q-238 0 -361.5 146.5t-123.5 397.5zM342 543q0 -78 16.5 -142.5t51 -116t93.5 -80t138 -28.5q82 0 150.5 22 t117.5 59.5t87.5 91t62.5 112t39.5 126.5t21.5 131t6 130q0 79 -16.5 143.5t-51 116.5t-94.5 80.5t-141 28.5q-109 0 -194.5 -41.5t-138 -107.5t-87 -156.5t-48 -180.5t-13.5 -188z" />
<glyph unicode="1" horiz-adv-x="970" d="M117 1090l633 303h159l-245 -1393h-213l202 1147l-485 -223z" />
<glyph unicode="2" horiz-adv-x="1273" d="M35 0l28 162l652 446q138 94 197 183.5t59 205.5q0 95 -60 157.5t-176 62.5q-155 0 -246.5 -87.5t-119.5 -236.5l-199 35q44 224 197.5 354.5t392.5 130.5q107 0 192 -32.5t137 -88.5t79.5 -125.5t27.5 -148.5q0 -170 -84 -294t-276 -249l-426 -289h680l-35 -186h-1020z " />
<glyph unicode="3" horiz-adv-x="1261" d="M25 70l73 178q58 -31 165 -58.5t224 -27.5q173 0 287.5 76t114.5 206q0 87 -69.5 133t-203.5 46h-325l35 188h323q140 0 220.5 69t80.5 169q0 86 -74 133t-198 47q-115 0 -232 -30t-186 -62l-16 182q83 36 206 65t246 29q223 0 350.5 -88t127.5 -238q0 -131 -79.5 -232 t-209.5 -128q110 -32 165.5 -106t55.5 -181q0 -216 -172 -338t-465 -122q-133 0 -251.5 29t-192.5 61z" />
<glyph unicode="4" horiz-adv-x="1361" d="M8 289l27 147l860 957h268l-164 -926h263l-33 -178h-260l-51 -289h-203l51 289h-758zM276 467h521l127 719z" />
<glyph unicode="5" horiz-adv-x="1263" d="M6 76l88 178q170 -92 385 -92q84 0 157 18.5t133 55.5t95 100.5t35 146.5q0 101 -83.5 149t-229.5 48h-385l-8 10l182 703h860l-31 -187h-686l-92 -366h199q233 0 364 -85.5t131 -250.5q0 -134 -51 -236.5t-141.5 -164.5t-206 -92.5t-254.5 -30.5q-257 0 -461 96z" />
<glyph unicode="6" horiz-adv-x="1380" d="M129 541q0 253 91 450t264 309.5t401 112.5q146 0 266 -38t178 -83l-92 -176q-56 45 -150.5 80t-207.5 35t-204.5 -38t-154.5 -106.5t-103.5 -157t-58.5 -194.5q208 193 469 193q202 0 315 -102.5t113 -276.5q0 -126 -48 -233.5t-130.5 -180.5t-194.5 -114t-239 -41 q-244 0 -379 154.5t-135 406.5zM346 549q3 -167 84.5 -270t235.5 -103q157 0 265.5 100.5t108.5 247.5q0 112 -74 170t-200 58q-67 0 -133.5 -20t-120.5 -53t-93.5 -64.5t-72.5 -65.5z" />
<glyph unicode="7" horiz-adv-x="1101" d="M127 0l4 20l780 1186h-745l31 187h991l-27 -154l-796 -1239h-238z" />
<glyph unicode="8" horiz-adv-x="1372" d="M80 324q0 166 95.5 268.5t281.5 134.5q-102 18 -157.5 91.5t-55.5 170.5q0 199 154.5 311.5t426.5 112.5q219 0 339 -83t120 -234q0 -138 -90 -242t-238 -127q128 -23 194.5 -95.5t66.5 -185.5q0 -215 -172.5 -340.5t-464.5 -125.5q-236 0 -368 93t-132 251zM301 369 q0 -95 84 -151t223 -56q170 0 281.5 73.5t111.5 198.5q0 87 -77 138t-232 51q-195 0 -293 -69t-98 -185zM455 997q0 -77 66 -126.5t206 -49.5q171 0 255.5 68t84.5 170q0 86 -71.5 131t-198.5 45q-155 0 -248.5 -61t-93.5 -177z" />
<glyph unicode="9" horiz-adv-x="1380" d="M84 100l92 176q55 -44 150.5 -79t208.5 -35t204.5 38t154 106.5t102.5 156.5t57 194q-202 -192 -467 -192q-202 0 -315 102t-113 277q0 126 48 233.5t130.5 180.5t194.5 114t239 41q244 0 379 -154.5t135 -406.5q0 -253 -91 -450t-264 -309.5t-401 -112.5 q-146 0 -266.5 37.5t-177.5 82.5zM373 868q0 -112 74 -170.5t200 -58.5q66 0 132 20t120.5 53.5t93.5 64t74 65.5q-3 167 -85 271t-234 104q-157 0 -266 -101t-109 -248z" />
<glyph unicode=":" horiz-adv-x="598" d="M70 82q0 82 43.5 128t122.5 46q58 0 88 -30t30 -83q0 -79 -45 -124.5t-123 -45.5q-57 0 -86.5 28.5t-29.5 80.5zM217 926q0 82 43.5 128t122.5 46q58 0 88.5 -30t30.5 -83q0 -79 -45 -124.5t-123 -45.5q-58 0 -87.5 28.5t-29.5 80.5z" />
<glyph unicode=";" horiz-adv-x="624" d="M25 -297l137 270q-42 7 -63 36t-21 69q0 80 44.5 128t121.5 48q57 0 89 -33t32 -86q0 -87 -77.5 -234.5t-152.5 -246.5zM244 926q0 82 43.5 128t122.5 46q58 0 88 -30t30 -83q0 -79 -45 -124.5t-123 -45.5q-57 0 -86.5 28.5t-29.5 80.5z" />
<glyph unicode="&#x3c;" horiz-adv-x="1159" d="M74 532l30 168l983 406h17l-29 -170l-813 -322l701 -319l-29 -162h-19z" />
<glyph unicode="=" horiz-adv-x="1259" d="M100 248l29 170h930l-29 -170h-930zM201 821l30 170h930l-31 -170h-929z" />
<glyph unicode="&#x3e;" horiz-adv-x="1159" d="M61 133l29 172l813 320l-700 321l28 160h17l842 -406l-31 -168l-981 -399h-17z" />
<glyph unicode="?" horiz-adv-x="952" d="M180 86q0 83 45 129.5t125 46.5q60 0 92.5 -30.5t32.5 -84.5q0 -81 -47 -126.5t-127 -45.5q-58 0 -89.5 29t-31.5 82zM193 1251q77 73 171 117.5t226 44.5q154 0 248 -90.5t94 -230.5q0 -47 -8.5 -87.5t-28 -75.5t-37 -60t-51 -55t-53.5 -46t-60 -45l-131 -100 q-50 -38 -62 -54q-24 -33 -24 -92q0 -6 1 -21t1 -20h-182q-6 54 -6 72q0 74 31 125.5t112 109.5l127 97q42 31 63.5 50t45 47.5t33.5 61t10 74.5q0 74 -48.5 118t-123.5 44q-89 0 -171.5 -44.5t-142.5 -109.5z" />
<glyph unicode="@" horiz-adv-x="1996" d="M86 387q0 231 84 433.5t227.5 345t341 225t418.5 82.5q348 0 558 -196.5t210 -516.5q0 -174 -46.5 -316t-125.5 -233t-181 -139.5t-216 -48.5q-171 0 -199 127q-128 -125 -321 -125q-170 0 -271.5 115.5t-101.5 291.5q0 168 69.5 303t192 211t274.5 76q95 0 168.5 -30.5 t110.5 -84.5l18 99h205l-127 -713q-10 -58 2.5 -85.5t65.5 -27.5q39 0 82 20.5t87 66.5t79 110t57 161t22 210q0 258 -167 417.5t-457 159.5q-189 0 -356 -70t-288 -191.5t-191 -295.5t-70 -373q0 -187 74.5 -332.5t217.5 -229t334 -83.5q174 0 369 90l35 -143 q-205 -94 -424 -94q-225 0 -399 102t-267.5 280t-93.5 402zM676 457q0 -113 64 -183.5t178 -70.5q68 0 135.5 29t117.5 75l78 430q-34 44 -92 74.5t-127 30.5q-155 0 -254.5 -109.5t-99.5 -275.5z" />
<glyph unicode="A" horiz-adv-x="1429" d="M-61 0l804 1393h248l289 -1393h-211l-63 307h-668l-178 -307h-221zM422 469h557l-145 711z" />
<glyph unicode="B" horiz-adv-x="1400" d="M94 0l246 1393h526q192 0 297 -79t105 -227q0 -139 -75.5 -229t-209.5 -133q132 -23 204.5 -101t72.5 -200q0 -198 -143 -311t-404 -113h-619zM340 184h377q157 0 237 64t80 186q0 182 -274 182h-344zM451 805h274q148 0 232.5 58.5t84.5 180.5q0 164 -237 164h-283z" />
<glyph unicode="C" horiz-adv-x="1443" d="M123 590q0 136 43 263t120.5 227.5t180.5 176t228.5 116t258.5 40.5q157 0 287 -57t215 -158l-123 -143q-139 159 -401 159q-160 0 -297 -81.5t-217 -221.5t-80 -303q0 -189 110.5 -309.5t299.5 -120.5q127 0 245.5 45.5t210.5 120.5l80 -160q-241 -204 -563 -204 q-175 0 -312 80t-211.5 219t-74.5 311z" />
<glyph unicode="D" horiz-adv-x="1579" d="M94 0l246 1393h543q266 -2 433 -158.5t167 -419.5q0 -194 -64.5 -350t-176.5 -257t-261 -154.5t-322 -53.5h-565zM340 186h334q123 0 230 41.5t186 118t124.5 194t45.5 261.5q0 191 -110.5 298t-297.5 107h-332z" />
<glyph unicode="E" horiz-adv-x="1366" d="M94 0l246 1393h1051l-33 -189h-848l-68 -391h701l-33 -188h-702l-76 -437h846l-33 -188h-1051z" />
<glyph unicode="F" horiz-adv-x="1298" d="M94 0l246 1393h1012l-35 -189h-807l-84 -481h698l-32 -188h-699l-94 -535h-205z" />
<glyph unicode="G" horiz-adv-x="1546" d="M125 586q0 189 69.5 347t186.5 261.5t270 161t322 57.5q306 0 495 -192l-127 -164q-144 157 -387 157q-121 0 -230.5 -43t-193 -120t-133 -195t-49.5 -258q0 -193 119.5 -306.5t312.5 -113.5q95 0 190.5 27t170.5 71l55 318h-414l33 186h627l-109 -624 q-112 -75 -274 -125.5t-316 -50.5q-177 0 -317 73t-220.5 211.5t-80.5 321.5z" />
<glyph unicode="H" horiz-adv-x="1656" d="M94 0l246 1393h213l-107 -598h830l106 598h213l-245 -1393h-213l106 608h-829l-107 -608h-213z" />
<glyph unicode="I" horiz-adv-x="616" d="M94 0l246 1393h213l-246 -1393h-213z" />
<glyph unicode="J" horiz-adv-x="1286" d="M33 522l211 21q-5 -45 -5 -84q0 -118 45 -189q59 -94 214 -94q158 0 253 99t128 280l147 838h215l-151 -852q-46 -263 -198.5 -413.5t-410.5 -150.5q-247 0 -361 147q-93 117 -93 303q0 45 6 95z" />
<glyph unicode="K" horiz-adv-x="1374" d="M94 0l246 1393h213l-109 -613h154l600 613h227v-33l-657 -674l477 -655l-6 -31h-233l-422 592h-172l-105 -592h-213z" />
<glyph unicode="L" horiz-adv-x="1179" d="M94 0l246 1393h213l-211 -1207h735l-35 -186h-948z" />
<glyph unicode="M" horiz-adv-x="1880" d="M94 0l246 1393h182l426 -682l668 682h201l-244 -1393h-213l184 1055l-616 -635h-41l-393 635l-187 -1055h-213z" />
<glyph unicode="N" horiz-adv-x="1654" d="M94 0l246 1393h188l664 -1067l186 1067h213l-245 -1393h-187l-665 1067l-187 -1067h-213z" />
<glyph unicode="O" horiz-adv-x="1630" d="M123 586q0 231 113 422t302 298t410 107q173 0 308.5 -79t209.5 -217.5t74 -313.5q0 -173 -67.5 -327.5t-180.5 -262t-265.5 -170.5t-317.5 -63q-260 0 -423 170.5t-163 435.5zM338 606q0 -184 110 -305t291 -121q159 0 294 79.5t214.5 218.5t79.5 306q0 186 -111 306 t-294 120q-157 0 -291 -79t-213.5 -218.5t-79.5 -306.5z" />
<glyph unicode="P" horiz-adv-x="1386" d="M94 0l246 1393h608q180 0 297 -108.5t117 -303.5q0 -135 -48.5 -246t-129.5 -181.5t-183.5 -109t-214.5 -38.5h-407l-72 -406h-213zM412 592h372q144 0 248.5 100t104.5 266q0 117 -67.5 182.5t-176.5 65.5h-373z" />
<glyph unicode="Q" horiz-adv-x="1628" d="M123 584q0 231 113.5 422.5t302.5 299t409 107.5q172 0 308.5 -81.5t210 -220t73.5 -306.5q0 -283 -167.5 -497t-432.5 -292q8 -8 40 -41.5t47.5 -48t49.5 -41.5t61 -39.5t66.5 -23t81.5 -10.5q126 0 219 34l-6 -176q-119 -39 -256 -39q-77 0 -147 23t-119 58t-94 77.5 t-75 80.5t-59 69.5t-49 40.5q-170 1 -302.5 82t-203.5 217.5t-71 304.5zM336 606q0 -184 110.5 -305t292.5 -121q158 0 292.5 79.5t214 218.5t79.5 306q0 186 -111 306t-294 120q-157 0 -291 -79t-213.5 -218.5t-79.5 -306.5z" />
<glyph unicode="R" horiz-adv-x="1480" d="M94 0l246 1393h590q87 0 164.5 -23t140 -67.5t99 -119t36.5 -169.5q0 -107 -37 -197t-101 -151.5t-146 -99.5t-175 -50l432 -481v-35h-241l-447 512h-258l-90 -512h-213zM426 682h399q132 0 225 84.5t93 226.5q0 103 -61.5 158t-163.5 55h-398z" />
<glyph unicode="S" horiz-adv-x="1263" d="M47 100l84 195q74 -48 180.5 -83.5t223.5 -35.5q161 0 261.5 66t100.5 174q0 125 -205 178l-223 61q-285 80 -285 310q0 92 33.5 170.5t101.5 141.5t182.5 98.5t264.5 35.5q130 0 258 -33.5t203 -77.5l-86 -186q-67 41 -180 70.5t-220 29.5q-172 0 -251.5 -61t-79.5 -158 q0 -56 37.5 -90t115.5 -55l223 -66q171 -50 253.5 -132t82.5 -203q0 -147 -79.5 -254.5t-214.5 -161t-310 -53.5q-143 0 -271 37.5t-200 82.5z" />
<glyph unicode="T" horiz-adv-x="1245" d="M154 1204l30 189h1153l-32 -189h-459l-213 -1204h-213l213 1204h-479z" />
<glyph unicode="U" horiz-adv-x="1562" d="M178 575l144 818h213l-142 -803q-10 -59 -10 -110q0 -118 53 -194q76 -110 266 -110q191 0 310 114t153 302l140 801h213l-144 -818q-21 -124 -74 -230t-137 -189.5t-208 -131t-275 -47.5q-191 0 -316 77.5t-171 211.5q-27 80 -27 175q0 64 12 134z" />
<glyph unicode="V" horiz-adv-x="1443" d="M180 1393h223l226 -1194l667 1194h240l-803 -1393h-264z" />
<glyph unicode="W" horiz-adv-x="2181" d="M180 1393h223l234 -1153l407 686l-90 467h228l213 -1121l641 1121h237l-803 -1393h-229l-143 674l-398 -674h-231z" />
<glyph unicode="X" horiz-adv-x="1413" d="M-53 0l4 18l620 676l-381 682l3 17h239l309 -557l508 557h250l-4 -17l-623 -682l385 -676l-4 -18h-239l-309 553l-504 -553h-254z" />
<glyph unicode="Y" horiz-adv-x="1380" d="M170 1376l2 17h229l304 -627l524 627h246l-2 -17l-687 -805l-102 -571h-213l102 569z" />
<glyph unicode="Z" horiz-adv-x="1239" d="M-2 0l29 154l929 1052h-745l33 187h1028l-27 -154l-932 -1053h746l-33 -186h-1028z" />
<glyph unicode="[" horiz-adv-x="704" d="M10 -385l29 170l264 1499l31 170h434l-29 -170h-266l-264 -1499h264l-29 -170h-434z" />
<glyph unicode="\" horiz-adv-x="1005" d="M197 1376l2 17h180l461 -1375l-2 -18h-183z" />
<glyph unicode="]" horiz-adv-x="702" d="M-88 -385l31 170h260l266 1499h-262l31 170h432l-297 -1669h4l-33 -170h-432z" />
<glyph unicode="^" horiz-adv-x="1122" d="M156 811l2 18l465 564h159l273 -564l-2 -18h-191l-182 414l-324 -414h-200z" />
<glyph unicode="_" horiz-adv-x="1306" d="M6 -246l31 172h993l-31 -172h-993z" />
<glyph unicode="`" horiz-adv-x="1191" d="M690 1518h209l109 -297h-179z" />
<glyph unicode="a" horiz-adv-x="1339" d="M98 442q0 140 45.5 261t124 205.5t187 133t231.5 48.5q100 0 184 -37t138 -97l20 115h213l-188 -1071h-213l18 106q-140 -126 -330 -126q-198 0 -314 131t-116 331zM315 465q0 -133 76 -216t207 -83q79 0 159 35t132 84l88 497q-40 51 -106.5 86t-143.5 35 q-176 0 -294 -123.5t-118 -314.5z" />
<glyph unicode="b" horiz-adv-x="1343" d="M74 0l256 1454h213l-86 -487q143 123 344 123q126 0 223 -61.5t148 -166t51 -233.5q0 -190 -78.5 -338.5t-215.5 -229.5t-308 -81q-106 0 -186 38t-128 103l-20 -121h-213zM338 287q38 -50 105 -85.5t147 -35.5q178 0 293.5 124t115.5 318q0 132 -74 213.5t-204 81.5 q-79 0 -159 -36.5t-138 -88.5z" />
<glyph unicode="c" horiz-adv-x="1155" d="M94 451q0 135 50.5 255t138 206.5t209 137t258.5 50.5q117 0 214 -39.5t160 -108.5l-123 -151q-43 43 -114 72.5t-154 29.5q-181 0 -303.5 -123.5t-122.5 -306.5q0 -136 80 -220.5t217 -84.5q155 0 295 108l80 -167q-181 -138 -410 -138q-213 0 -344 137t-131 343z" />
<glyph unicode="d" horiz-adv-x="1339" d="M98 442q0 140 45.5 261t124 205.5t187 133t231.5 48.5q100 0 184 -37t138 -97l88 498h213l-256 -1454h-213l18 106q-140 -126 -330 -126q-198 0 -314 131t-116 331zM315 465q0 -133 76 -216t207 -83q79 0 159 35t132 84l88 497q-40 51 -106.5 86t-143.5 35 q-176 0 -294 -123.5t-118 -314.5z" />
<glyph unicode="e" horiz-adv-x="1241" d="M92 430q0 178 78.5 330.5t225.5 246t331 93.5q198 0 306 -101.5t108 -265.5q0 -66 -17.5 -144t-38.5 -124h-782q-1 -15 -1 -29q0 -123 69 -199q77 -85 231 -85q100 0 197 33.5t170 84.5l57 -161q-197 -138 -451 -138q-237 0 -360 127.5t-123 331.5zM340 631h584 q14 54 14 96q0 85 -56 140t-169 55q-137 0 -240 -84t-133 -207z" />
<glyph unicode="f" horiz-adv-x="917" d="M115 -385l217 1229h-205l31 170h202l17 88q14 80 43 146t75 118t115 80.5t156 28.5q81 0 153.5 -29t114.5 -66l-80 -170q-86 76 -180 76q-154 0 -184 -184l-17 -88h349l-31 -170h-346l-217 -1229h-213z" />
<glyph unicode="g" d="M102 -293l78 182q145 -106 330 -106q127 0 222.5 71.5t123.5 217.5l18 106q-140 -117 -344 -117q-190 0 -305.5 125.5t-115.5 315.5q0 162 72.5 296t204.5 213t296 79q105 0 189 -38.5t137 -101.5l22 121h213l-174 -983q-42 -244 -191 -369t-386 -125q-219 0 -390 113z M328 518q0 -118 76 -194t208 -76q79 0 158 35.5t137 87.5l72 407q-38 53 -106.5 89t-155.5 36q-166 0 -277.5 -111.5t-111.5 -273.5z" />
<glyph unicode="h" horiz-adv-x="1335" d="M74 0l256 1454h213l-97 -545q154 181 388 181q138 0 223 -64t111 -172q13 -55 14 -119q0 -61 -13 -131l-106 -604h-213l102 584q9 48 9 89q-1 81 -35 137q-52 84 -183 83q-116 0 -204 -66.5t-136 -164.5l-116 -662h-213z" />
<glyph unicode="i" horiz-adv-x="575" d="M72 0l192 1071h213l-190 -1071h-215zM293 1350q0 141 153 141q50 0 80.5 -22.5t30.5 -67.5q0 -141 -151 -141q-113 0 -113 90z" />
<glyph unicode="j" horiz-adv-x="573" d="M-164 -258q103 57 165 128.5t85 192.5l176 1008h213l-176 -1001q-59 -335 -346 -473zM291 1350q0 141 153 141q111 0 111 -90q0 -73 -41 -107t-111 -34q-112 0 -112 90z" />
<glyph unicode="k" horiz-adv-x="1169" d="M74 0l256 1454h213l-146 -819l512 436h254l-2 -35l-565 -473l420 -528l-4 -35h-236l-397 524l-92 -524h-213z" />
<glyph unicode="l" horiz-adv-x="661" d="M121 256l211 1198h213l-205 -1159q-4 -24 -4 -43q0 -90 80 -90q63 0 129 37l-15 -174q-96 -45 -213 -45q-113 0 -167 66q-37 45 -37 127q0 38 8 83z" />
<glyph unicode="m" horiz-adv-x="2070" d="M74 0l188 1071h211l-27 -160q156 181 379 181q142 0 220 -55t106 -160q72 94 183 153.5t245 59.5q83 0 147 -24t104 -67t63 -103t24 -134v-11q0 -69 -12 -147l-107 -604h-213l103 584q9 50 9 93q1 79 -31 133q-48 83 -179 83q-115 0 -197.5 -62t-126.5 -159 q-7 -27 -10 -56l-109 -616h-213l103 586q9 50 9 93q0 79 -31 132q-48 82 -179 82q-115 0 -198 -62.5t-132 -160.5l-118 -670h-211z" />
<glyph unicode="n" horiz-adv-x="1335" d="M74 0l188 1071h211l-29 -164q162 183 390 183q138 0 223 -64t111 -172q13 -55 14 -119q0 -61 -13 -131l-106 -604h-213l102 584q9 48 9 89q-1 81 -35 137q-52 84 -183 83q-116 0 -204 -66.5t-138 -164.5l-116 -662h-211z" />
<glyph unicode="o" d="M92 449q0 183 87 333t236 234t328 84q215 0 347.5 -134t132.5 -348q0 -137 -51 -258t-138 -206t-208 -134t-257 -49q-212 0 -344.5 133t-132.5 345zM301 469q0 -130 79.5 -215.5t211.5 -85.5q179 0 300.5 123.5t121.5 306.5q0 132 -79.5 218.5t-213.5 86.5 q-174 0 -297 -125.5t-123 -308.5z" />
<glyph unicode="p" d="M4 -385l258 1456h213l-20 -108q141 127 333 127q198 0 314.5 -131.5t116.5 -331.5q0 -186 -77.5 -334.5t-210 -230.5t-294.5 -82q-109 0 -194.5 36.5t-137.5 98.5l-88 -500h-213zM336 291q38 -54 106 -89.5t154 -35.5q172 0 287.5 124t115.5 314q0 133 -74.5 216 t-205.5 83q-81 0 -162 -36t-133 -85z" />
<glyph unicode="q" d="M98 442q0 190 78 339t213 230t303 81q103 0 185.5 -38.5t134.5 -101.5l20 119h213l-258 -1456h-213l86 487q-140 -120 -342 -120q-126 0 -222.5 61.5t-147 165.5t-50.5 233zM319 463q0 -132 74.5 -213.5t204.5 -81.5q80 0 160 36t137 89l86 489v2q-38 50 -107 85.5 t-157 35.5q-169 0 -283.5 -124.5t-114.5 -317.5z" />
<glyph unicode="r" horiz-adv-x="946" d="M74 0l188 1071h211l-39 -215q148 234 340 234q129 0 207 -78l-109 -176q-28 25 -72.5 41t-90.5 16q-96 0 -177.5 -68.5t-132.5 -175.5l-114 -649h-211z" />
<glyph unicode="s" horiz-adv-x="1062" d="M43 76l66 172q160 -90 329 -90q113 0 181.5 40t68.5 105q0 42 -33 68.5t-100 48.5l-174 61q-124 43 -179 99.5t-55 154.5q0 161 129.5 258t341.5 97q109 0 209.5 -24.5t161.5 -57.5l-78 -172q-61 31 -149.5 52t-165.5 21q-109 0 -171.5 -37t-62.5 -110q0 -38 30.5 -61.5 t105.5 -47.5l164 -53q128 -44 187.5 -109t59.5 -161q0 -161 -137.5 -255.5t-343.5 -94.5q-216 0 -385 96z" />
<glyph unicode="t" horiz-adv-x="985" d="M123 903l29 168h196l74 272h186l-47 -272h404l-31 -168h-404l-94 -532q-7 -41 -7 -74q0 -51 18 -81q30 -50 118 -50q57 0 124.5 24t117.5 58l41 -174q-172 -94 -363 -94q-155 0 -227 90q-51 64 -51 169q0 42 8 91l102 573h-194z" />
<glyph unicode="u" horiz-adv-x="1335" d="M141 467l107 604h213l-103 -584q-9 -48 -9 -89q0 -82 35 -137q52 -83 187 -83q113 0 201.5 67t136.5 165l117 661h211l-188 -1071h-211l28 164q-161 -182 -389 -182q-138 0 -223 64q-86 64 -112 172q-14 55 -13 119q0 61 12 130z" />
<glyph unicode="v" horiz-adv-x="1206" d="M139 1071h215l168 -872l479 872h222l-602 -1071h-254z" />
<glyph unicode="w" horiz-adv-x="1959" d="M141 1071h213l131 -872l447 872h244l122 -872l455 872h221l-573 -1071h-248l-135 856l-443 -856h-249z" />
<glyph unicode="x" horiz-adv-x="1183" d="M-37 0l4 18l463 514l-280 523l2 16h225l217 -414l362 414h238l-2 -16l-467 -523l285 -514l-4 -18h-226l-215 408l-356 -408h-246z" />
<glyph unicode="y" horiz-adv-x="1230" d="M-102 -332l61 168q86 -59 197 -59q78 0 129 40.5t106 131.5l39 69l-301 1053h227l199 -838l465 838h225l-657 -1132q-41 -71 -74.5 -120.5t-75.5 -95t-85.5 -72t-99.5 -42t-122 -15.5q-68 0 -130.5 22.5t-102.5 51.5z" />
<glyph unicode="z" horiz-adv-x="1062" d="M6 0l27 154l698 747h-567l31 170h839l-26 -153l-699 -748h568l-33 -170h-838z" />
<glyph unicode="{" horiz-adv-x="663" d="M41 -205q0 52 21 111.5t51 113.5t60.5 107t51.5 109.5t21 103.5q0 121 -178 121l22 131q126 0 179 46.5t53 156.5q0 59 -20.5 183t-20.5 175q0 138 83 219.5t250 81.5h93l-29 -154h-70q-77 0 -120.5 -44t-43.5 -126q0 -45 22.5 -170t22.5 -184q0 -114 -44.5 -170.5 t-147.5 -81.5q123 -40 123 -149q0 -60 -31 -137t-68.5 -138t-68.5 -131t-31 -119q0 -44 28 -70t87 -26h70l-27 -153h-80q-126 0 -192 53.5t-66 140.5z" />
<glyph unicode="|" horiz-adv-x="536" d="M8 -385l324 1839h172l-324 -1839h-172z" />
<glyph unicode="}" horiz-adv-x="663" d="M-70 -399l29 153h70q77 0 120.5 44t43.5 126q0 45 -23 170.5t-23 184.5q0 113 45 169.5t148 81.5q-123 39 -123 150q0 61 31 138t68.5 138t68.5 130.5t31 117.5q0 44 -28 70t-87 26h-70l27 154h80q126 0 192 -53.5t66 -140.5q0 -52 -21 -111.5t-51 -113.5t-60.5 -107 t-51.5 -109.5t-21 -103.5q0 -119 178 -119l-22 -131q-127 0 -179.5 -47t-52.5 -158q0 -59 20.5 -183t20.5 -175q0 -137 -83.5 -219t-249.5 -82h-93z" />
<glyph unicode="~" horiz-adv-x="1052" d="M129 596q33 78 95 128t143 50q50 0 99.5 -25.5t81.5 -55.5t73 -55.5t77 -25.5q100 0 168 129l62 -104q-39 -86 -102.5 -135t-141.5 -49q-48 0 -94 25.5t-77 56t-74 56t-85 25.5q-48 0 -94.5 -34t-71.5 -95z" />
<glyph unicode="&#xa1;" horiz-adv-x="550" d="M6 -317l201 956h153l-139 -956h-215zM190 926q0 83 46 128.5t126 45.5q58 0 88.5 -29t30.5 -82q0 -84 -44.5 -131t-125.5 -47q-58 0 -89.5 31t-31.5 84z" />
<glyph unicode="&#xa2;" horiz-adv-x="1208" d="M94 451q0 135 50.5 255t138 206.5t209 137t258.5 50.5q23 0 59 -4l100 225l127 -39l-96 -213q113 -40 184 -117l-123 -151q-56 56 -143 82l-317 -711q40 -4 63 -4q155 0 295 108l80 -167q-181 -138 -410 -138q-55 0 -112 13l-117 -263l-123 39l117 265 q-114 60 -177 172.5t-63 253.5zM307 473q0 -170 115 -252l301 682q-178 -3 -297 -126.5t-119 -303.5z" />
<glyph unicode="&#xa3;" horiz-adv-x="1269" d="M23 152q0 105 69 171t172 66q56 0 96 -22q16 87 5 276h-197l25 135h163v66q0 267 125 418t365 151q123 0 226.5 -56.5t150.5 -113.5l-99 -178q-24 29 -32.5 39t-38 37.5t-53 40t-62 24t-80.5 11.5q-126 0 -200.5 -83.5t-86.5 -232.5q-4 -41 -8 -123h418l-25 -135h-395 q-4 -224 -31 -332q15 -11 62 -54.5t87 -69t77 -25.5q87 0 131.5 71t66.5 216h174q-16 -142 -59 -245t-120.5 -163.5t-182.5 -60.5q-44 0 -90.5 22.5t-77 49t-73.5 67t-64 57.5q-54 -98 -112.5 -147t-153.5 -49q-79 0 -125.5 49.5t-46.5 122.5zM156 164q0 -25 14 -42.5 t41 -17.5q43 0 70.5 39.5t48.5 104.5q-21 18 -68 18q-44 0 -75 -28t-31 -74z" />
<glyph unicode="&#xa4;" horiz-adv-x="1101" d="M92 322l123 106q-31 72 -31 137q0 143 92 252l-86 111l142 119l90 -115q79 49 184 49q107 0 172 -59l137 120l101 -122l-135 -119q30 -66 30 -131q0 -132 -86 -242l95 -117l-142 -118l-96 116q-80 -51 -195 -51q-91 0 -165 53l-129 -112zM336 582q0 -77 48 -129t124 -52 q105 0 177.5 74t72.5 180q0 77 -47 129t-125 52q-103 0 -176.5 -74.5t-73.5 -179.5z" />
<glyph unicode="&#xa5;" horiz-adv-x="1214" d="M117 276l24 134h318l22 129h-317l22 133h267l-240 704l4 17h213l188 -650l429 650h225l-2 -17l-498 -704h266l-24 -133h-318l-24 -129h321l-22 -134h-322l-49 -276h-213l49 276h-319z" />
<glyph unicode="&#xa6;" horiz-adv-x="546" d="M12 -385l127 711h170l-125 -711h-172zM217 768l121 686h172l-121 -686h-172z" />
<glyph unicode="&#xa7;" horiz-adv-x="1277" d="M39 -104l70 180q71 -37 196 -68t246 -31q128 0 210.5 35.5t82.5 106.5q0 41 -42.5 67t-135.5 45l-287 62q-254 56 -254 258q0 101 57 183t168 132q-131 64 -131 199q0 154 139.5 251t405.5 97q276 0 473 -88l-80 -176q-85 39 -202 65.5t-230 26.5q-144 0 -218.5 -40.5 t-74.5 -102.5q0 -73 113 -97l303 -59q147 -30 226 -108t79 -183q0 -103 -60.5 -182t-170.5 -125q143 -73 143 -199q0 -159 -153 -251.5t-404 -92.5q-144 0 -268.5 29.5t-200.5 65.5zM330 586q0 -51 34.5 -82.5t114.5 -48.5l187 -39q122 5 198 62t76 147q0 122 -188 157 l-152 27q-128 -7 -199 -74.5t-71 -148.5z" />
<glyph unicode="&#xa8;" horiz-adv-x="1191" d="M471 1348q0 135 143 135q103 0 103 -86q0 -67 -38.5 -101t-100.5 -34q-49 0 -78 21.5t-29 64.5zM987 1348q0 135 143 135q103 0 103 -86q0 -68 -37.5 -101.5t-101.5 -33.5q-49 0 -78 21.5t-29 64.5z" />
<glyph unicode="&#xa9;" horiz-adv-x="1632" d="M125 584q0 171 66 325t177.5 264.5t262.5 175t315 64.5q173 0 309 -79t210.5 -217.5t74.5 -311.5q0 -170 -67 -323.5t-179 -263t-264 -174t-317 -64.5q-172 0 -306.5 78.5t-208 216t-73.5 309.5zM248 594q0 -214 132 -355t345 -141q137 0 264 54t220.5 146.5t149.5 222.5 t56 274q0 216 -132 356.5t-347 140.5q-137 0 -263.5 -54.5t-220 -147t-149 -222.5t-55.5 -274zM473 653q0 168 123 284t297 116q161 0 264 -103l-84 -121q-68 72 -176 72q-110 0 -184 -69t-74 -170q0 -76 49.5 -124.5t134.5 -48.5q116 0 201 72l57 -125q-139 -100 -295 -100 q-141 0 -227 86t-86 231z" />
<glyph unicode="&#xaa;" horiz-adv-x="980" d="M156 399l20 121h615l-21 -121h-614zM203 879q0 130 103 195t284 65q24 0 76 -9l4 31q12 66 -15 93.5t-96 27.5q-52 0 -110 -14.5t-97 -36.5l-6 131q116 47 248 47q269 0 225 -235l-51 -287q-5 -36 3 -55t38 -19q31 0 70 25l-11 -117q-72 -33 -133 -33q-91 0 -110 86 q-97 -86 -222 -86q-91 0 -145.5 52.5t-54.5 138.5zM348 895q0 -40 31.5 -62t83.5 -22q81 0 155 57l29 166q-21 6 -67 6q-232 0 -232 -145z" />
<glyph unicode="&#xab;" horiz-adv-x="1083" d="M106 596l9 45l391 412h16l70 -56l-301 -385l166 -385l-88 -43h-17zM547 596l6 45l393 412h15l69 -56l-301 -385l166 -385l-86 -43h-16z" />
<glyph unicode="&#xac;" horiz-adv-x="1247" d="M158 657l28 170h932l-100 -563h-170l70 393h-760z" />
<glyph unicode="&#xad;" horiz-adv-x="1081" d="M143 535l31 170h768l-29 -170h-770z" />
<glyph unicode="&#xae;" horiz-adv-x="1632" d="M125 584q0 171 66 325t177.5 264.5t262.5 175t315 64.5q173 0 309 -79t210.5 -217.5t74.5 -311.5q0 -170 -67 -323.5t-179 -263t-264 -174t-317 -64.5q-172 0 -306.5 78.5t-208 216t-73.5 309.5zM248 594q0 -214 132 -355t345 -141q137 0 264 54t220.5 146.5t149.5 222.5 t56 274q0 216 -132 356.5t-347 140.5q-137 0 -263.5 -54.5t-220 -147t-149 -222.5t-55.5 -274zM489 346l123 696h312q96 0 155.5 -53t59.5 -145q0 -94 -56.5 -160.5t-144.5 -87.5l160 -219l-6 -31h-172l-164 242h-62l-43 -242h-162zM715 707h147q52 0 86.5 33.5t34.5 88.5 q0 39 -23.5 60.5t-62.5 21.5h-147z" />
<glyph unicode="&#xaf;" horiz-adv-x="1191" d="M588 1276l26 149h492l-27 -149h-491z" />
<glyph unicode="&#xb0;" horiz-adv-x="942" d="M182 993q0 116 57.5 213t154 152t208.5 55q140 0 224.5 -88.5t84.5 -222.5q0 -175 -123 -294.5t-296 -119.5q-139 0 -224.5 87t-85.5 218zM336 1012q0 -77 47 -129t125 -52q105 0 177.5 75t72.5 181q0 77 -47 129t-127 52q-102 0 -175 -75.5t-73 -180.5z" />
<glyph unicode="&#xb1;" horiz-adv-x="1263" d="M88 137l31 170h930l-31 -170h-930zM199 762l28 170h381l70 393h170l-70 -393h379l-29 -170h-380l-50 -285h-170l52 285h-381z" />
<glyph unicode="&#xb2;" horiz-adv-x="673" d="M152 934l16 94l295 201q70 47 99.5 88.5t29.5 91.5q0 42 -26 69t-77 27q-68 0 -110 -40t-53 -107l-111 20q21 110 96.5 175t194.5 65q101 0 158 -55.5t57 -137.5q0 -151 -186 -274l-166 -109h305l-19 -108h-503z" />
<glyph unicode="&#xb3;" horiz-adv-x="659" d="M139 967l47 104q91 -41 183 -41q77 0 126.5 32.5t49.5 88.5q0 76 -125 76h-158l19 104h157q63 0 99 30t36 75q0 73 -120 73q-104 0 -197 -41l-10 107q116 43 225 43q112 0 171.5 -41.5t59.5 -116.5q0 -63 -40 -111t-107 -65q54 -12 84.5 -47.5t30.5 -89.5 q0 -103 -84.5 -163t-233.5 -60q-102 0 -213 43z" />
<glyph unicode="&#xb4;" horiz-adv-x="1191" d="M629 1221l213 297h223l-244 -297h-192z" />
<glyph unicode="&#xb5;" horiz-adv-x="1277" d="M6 -385l256 1456h213l-102 -590q-27 -153 18 -229t180 -76q101 0 182.5 54t129.5 132l125 709h213l-189 -1071h-213l21 117q-140 -137 -369 -137q-105 0 -182 36l-70 -401h-213z" />
<glyph unicode="&#xb6;" horiz-adv-x="1155" d="M102 762q0 144 90.5 225.5t225.5 83.5h284l-256 -1456h-167l165 936h-118q-100 0 -162 56.5t-62 154.5zM621 -385l256 1456h167l-256 -1456h-167z" />
<glyph unicode="&#xb7;" horiz-adv-x="577" d="M143 575q0 84 44.5 130.5t125.5 46.5q58 0 89.5 -30.5t31.5 -84.5q0 -81 -46 -126.5t-126 -45.5q-58 0 -88.5 28.5t-30.5 81.5z" />
<glyph unicode="&#xb8;" horiz-adv-x="1191" d="M346 -381l33 76q75 -23 121 -23q60 0 95.5 20t35.5 60q0 55 -99 55q-70 0 -124 -14l-5 10l89 197h94l-58 -127q24 6 60 6q70 0 108.5 -32t38.5 -85q0 -82 -67 -125t-176 -43q-81 0 -146 25z" />
<glyph unicode="&#xb9;" horiz-adv-x="524" d="M178 1454l309 152h93l-117 -672h-123l92 530l-221 -108z" />
<glyph unicode="&#xba;" horiz-adv-x="1024" d="M170 399l20 121h615l-21 -121h-614zM227 995q0 173 122.5 295.5t297.5 122.5q138 0 223.5 -88t85.5 -223q0 -173 -122 -293.5t-299 -120.5q-137 0 -222.5 86.5t-85.5 220.5zM367 1008q0 -82 49.5 -136.5t132.5 -54.5q112 0 189 78.5t77 191.5q0 84 -50 139.5t-134 55.5 q-110 0 -187 -80t-77 -194z" />
<glyph unicode="&#xbb;" horiz-adv-x="1083" d="M59 240l297 387l-163 385l86 41h18l244 -412l-6 -45l-392 -412h-18zM498 240l299 387l-166 385l88 41h16l246 -412l-8 -45l-389 -412h-19z" />
<glyph unicode="&#xbc;" horiz-adv-x="1550" d="M166 0l4 18l975 1375h133l-4 -17l-973 -1376h-135zM176 1249l309 152h93l-117 -672h-123l92 531l-221 -109zM774 131l14 84l408 457h164l-78 -447h123l-16 -94h-123l-23 -131h-123l23 131h-369zM920 225h239l60 336z" />
<glyph unicode="&#xbd;" horiz-adv-x="1513" d="M166 0l4 18l975 1375h133l-4 -17l-973 -1376h-135zM176 1241l309 152h93l-117 -672h-123l92 530l-221 -108zM815 0l16 94l293 201q70 47 99.5 89t29.5 93q0 41 -25.5 67.5t-76.5 26.5q-68 0 -110.5 -40t-53.5 -107l-110 20q22 111 97 175.5t193 64.5q103 0 159 -55 t56 -137q0 -152 -186 -275l-166 -108h307l-20 -109h-502z" />
<glyph unicode="&#xbe;" horiz-adv-x="1650" d="M125 762l47 104q91 -41 182 -41q77 0 126.5 32.5t49.5 88.5q0 76 -124 76h-158l18 104h158q63 0 99 30t36 75q0 74 -121 74q-103 0 -196 -41l-11 106q116 43 226 43q112 0 171.5 -41.5t59.5 -116.5q0 -63 -40 -111t-107 -65q54 -12 84 -47.5t30 -89.5q0 -103 -84.5 -163 t-232.5 -60q-102 0 -213 43zM274 0l5 18l974 1375h133l-4 -17l-972 -1376h-136zM881 131l14 84l408 457h163l-77 -447h122l-16 -94h-123l-22 -131h-123l22 131h-368zM1026 225h240l59 336z" />
<glyph unicode="&#xbf;" horiz-adv-x="933" d="M-14 -16q0 32 5 61t10.5 52.5t20 48.5t23.5 41t31 38.5t32 33.5t37.5 33t37.5 29.5t40 30.5l131 101q3 3 15 11.5t14.5 11t12 10.5t12 11t9 11t8.5 13.5t6 14.5t5.5 17t2.5 19.5t1 23.5q0 8 -1 23t-1 20h183q6 -60 6 -74q0 -72 -31.5 -123.5t-112.5 -109.5l-127 -96 q-80 -60 -115.5 -108.5t-35.5 -125.5q0 -74 48.5 -118t123.5 -44q89 0 171 44.5t142 109.5l35 -170q-77 -73 -171 -117.5t-226 -44.5q-154 0 -248 91t-94 231zM442 926q0 82 47 128t127 46q58 0 89.5 -29t31.5 -82q0 -83 -45 -130.5t-125 -47.5q-59 0 -92 31t-33 84z" />
<glyph unicode="&#xc0;" horiz-adv-x="1429" d="M-61 0l804 1393h248l289 -1393h-211l-63 307h-668l-178 -307h-221zM422 469h557l-145 711zM651 1839h209l109 -297h-178z" />
<glyph unicode="&#xc1;" horiz-adv-x="1429" d="M-61 0l804 1393h248l289 -1393h-211l-63 307h-668l-178 -307h-221zM422 469h557l-145 711zM752 1542l213 297h223l-244 -297h-192z" />
<glyph unicode="&#xc2;" horiz-adv-x="1429" d="M-61 0l804 1393h248l289 -1393h-211l-63 307h-668l-178 -307h-221zM422 469h557l-145 711zM557 1542l264 297h209l160 -297h-162l-117 189l-178 -189h-176z" />
<glyph unicode="&#xc3;" horiz-adv-x="1429" d="M-61 0l804 1393h248l289 -1393h-211l-63 307h-668l-178 -307h-221zM422 469h557l-145 711zM532 1669q41 66 101.5 109t126.5 43q42 0 84.5 -20t71 -44.5t63.5 -44.5t63 -20q87 0 154 96l57 -92q-102 -154 -227 -154q-39 0 -81.5 20.5t-73 45t-66 45t-62.5 20.5 q-83 0 -155 -96z" />
<glyph unicode="&#xc4;" horiz-adv-x="1429" d="M-61 0l804 1393h248l289 -1393h-211l-63 307h-668l-178 -307h-221zM422 469h557l-145 711zM522 1669q0 135 144 135q102 0 102 -86q0 -67 -38.5 -101t-100.5 -34q-49 0 -78 21.5t-29 64.5zM1038 1669q0 135 144 135q102 0 102 -86q0 -68 -37.5 -101.5t-101.5 -33.5 q-49 0 -78 21.5t-29 64.5z" />
<glyph unicode="&#xc5;" horiz-adv-x="1429" d="M-61 0l790 1368q-45 51 -45 123q0 90 68.5 157.5t158.5 67.5q73 0 121.5 -52t48.5 -124q0 -50 -23.5 -95t-62.5 -77l285 -1368h-211l-63 307h-668l-178 -307h-221zM422 469h557l-145 711zM780 1497q0 -38 23 -63t61 -25q47 0 84 36.5t37 86.5q0 37 -24 62.5t-60 25.5 q-48 0 -84.5 -36.5t-36.5 -86.5z" />
<glyph unicode="&#xc6;" horiz-adv-x="2115" d="M-100 0l1061 1393h1179l-35 -189h-843l-72 -397h700l-28 -174h-703l-78 -447h844l-31 -186h-1050l55 307h-530l-236 -307h-233zM483 469h445l135 770z" />
<glyph unicode="&#xc7;" horiz-adv-x="1445" d="M123 590q0 136 43 263t120.5 227.5t180.5 176t228.5 116t258.5 40.5q157 0 287 -57t215 -158l-123 -143q-139 159 -401 159q-160 0 -297 -81.5t-217 -221.5t-80 -303q0 -189 110.5 -309.5t299.5 -120.5q127 0 245.5 45.5t210.5 120.5l80 -160q-241 -204 -563 -204h-12 l-47 -107q24 6 59 6q70 0 108.5 -32t38.5 -85q0 -82 -67 -125t-176 -43q-81 0 -146 25l33 76q75 -23 121 -23q60 0 95.5 20t35.5 60q0 55 -98 55q-71 0 -125 -14l-4 10l81 185q-223 34 -359 200t-136 402z" />
<glyph unicode="&#xc8;" horiz-adv-x="1366" d="M94 0l246 1393h1051l-33 -189h-848l-68 -391h701l-33 -188h-702l-76 -437h846l-33 -188h-1051zM639 1839h209l108 -297h-178z" />
<glyph unicode="&#xc9;" horiz-adv-x="1366" d="M94 0l246 1393h1051l-33 -189h-848l-68 -391h701l-33 -188h-702l-76 -437h846l-33 -188h-1051zM725 1542l213 297h223l-243 -297h-193z" />
<glyph unicode="&#xca;" horiz-adv-x="1366" d="M94 0l246 1393h1051l-33 -189h-848l-68 -391h701l-33 -188h-702l-76 -437h846l-33 -188h-1051zM555 1542l264 297h209l160 -297h-162l-117 189l-178 -189h-176z" />
<glyph unicode="&#xcb;" horiz-adv-x="1366" d="M94 0l246 1393h1051l-33 -189h-848l-68 -391h701l-33 -188h-702l-76 -437h846l-33 -188h-1051zM522 1669q0 135 144 135q102 0 102 -86q0 -67 -38.5 -101t-100.5 -34q-49 0 -78 21.5t-29 64.5zM1038 1669q0 135 144 135q102 0 102 -86q0 -68 -37.5 -101.5t-101.5 -33.5 q-49 0 -78 21.5t-29 64.5z" />
<glyph unicode="&#xcc;" horiz-adv-x="616" d="M94 0l246 1393h213l-246 -1393h-213zM236 1839h208l109 -297h-178z" />
<glyph unicode="&#xcd;" horiz-adv-x="616" d="M94 0l246 1393h213l-246 -1393h-213zM362 1542l213 297h224l-244 -297h-193z" />
<glyph unicode="&#xce;" horiz-adv-x="616" d="M94 0l246 1393h213l-246 -1393h-213zM143 1542l265 297h208l160 -297h-162l-116 189l-179 -189h-176z" />
<glyph unicode="&#xcf;" horiz-adv-x="616" d="M94 0l246 1393h213l-246 -1393h-213zM123 1669q0 135 143 135q103 0 103 -86q0 -67 -39 -101t-101 -34q-49 0 -77.5 21.5t-28.5 64.5zM639 1669q0 135 143 135q103 0 103 -86q0 -68 -38 -101.5t-102 -33.5q-49 0 -77.5 21.5t-28.5 64.5z" />
<glyph unicode="&#xd0;" horiz-adv-x="1591" d="M90 612l31 170h123l108 611h543q266 -2 433 -158.5t167 -419.5q0 -194 -64 -350t-176 -257t-261 -154.5t-322 -53.5h-566l109 612h-125zM352 186h334q123 0 230 41.5t186 118t124.5 194t45.5 261.5q0 191 -110.5 298t-297.5 107h-332l-75 -424h307l-31 -170h-307z" />
<glyph unicode="&#xd1;" horiz-adv-x="1654" d="M94 0l246 1393h188l664 -1067l186 1067h213l-245 -1393h-187l-665 1067l-187 -1067h-213zM629 1669q41 66 101.5 109t125.5 43q42 0 84.5 -20t71.5 -44.5t64 -44.5t63 -20q86 0 153 96l58 -92q-102 -154 -228 -154q-39 0 -81.5 20.5t-72.5 45t-65.5 45t-62.5 20.5 q-84 0 -156 -96z" />
<glyph unicode="&#xd2;" horiz-adv-x="1632" d="M125 586q0 231 113 422t302 298t410 107q173 0 308.5 -79t209.5 -217.5t74 -313.5q0 -173 -67.5 -327.5t-180.5 -262t-265.5 -170.5t-317.5 -63q-260 0 -423 170.5t-163 435.5zM340 606q0 -184 110 -305t291 -121q159 0 294 79.5t214.5 218.5t79.5 306q0 186 -111 306 t-294 120q-157 0 -291 -79t-213.5 -218.5t-79.5 -306.5zM750 1839h208l109 -297h-178z" />
<glyph unicode="&#xd3;" horiz-adv-x="1632" d="M125 586q0 231 113 422t302 298t410 107q173 0 308.5 -79t209.5 -217.5t74 -313.5q0 -173 -67.5 -327.5t-180.5 -262t-265.5 -170.5t-317.5 -63q-260 0 -423 170.5t-163 435.5zM340 606q0 -184 110 -305t291 -121q159 0 294 79.5t214.5 218.5t79.5 306q0 186 -111 306 t-294 120q-157 0 -291 -79t-213.5 -218.5t-79.5 -306.5zM885 1542l213 297h223l-244 -297h-192z" />
<glyph unicode="&#xd4;" horiz-adv-x="1632" d="M125 586q0 231 113 422t302 298t410 107q173 0 308.5 -79t209.5 -217.5t74 -313.5q0 -173 -67.5 -327.5t-180.5 -262t-265.5 -170.5t-317.5 -63q-260 0 -423 170.5t-163 435.5zM340 606q0 -184 110 -305t291 -121q159 0 294 79.5t214.5 218.5t79.5 306q0 186 -111 306 t-294 120q-157 0 -291 -79t-213.5 -218.5t-79.5 -306.5zM666 1542l264 297h209l159 -297h-161l-117 189l-178 -189h-176z" />
<glyph unicode="&#xd5;" horiz-adv-x="1632" d="M125 586q0 231 113 422t302 298t410 107q173 0 308.5 -79t209.5 -217.5t74 -313.5q0 -173 -67.5 -327.5t-180.5 -262t-265.5 -170.5t-317.5 -63q-260 0 -423 170.5t-163 435.5zM340 606q0 -184 110 -305t291 -121q159 0 294 79.5t214.5 218.5t79.5 306q0 186 -111 306 t-294 120q-157 0 -291 -79t-213.5 -218.5t-79.5 -306.5zM618 1669q41 66 101.5 109t126.5 43q42 0 84.5 -20t71 -44.5t63.5 -44.5t63 -20q87 0 154 96l57 -92q-102 -154 -227 -154q-39 0 -81.5 20.5t-73 45t-66 45t-62.5 20.5q-83 0 -155 -96z" />
<glyph unicode="&#xd6;" horiz-adv-x="1632" d="M125 586q0 231 113 422t302 298t410 107q173 0 308.5 -79t209.5 -217.5t74 -313.5q0 -173 -67.5 -327.5t-180.5 -262t-265.5 -170.5t-317.5 -63q-260 0 -423 170.5t-163 435.5zM340 606q0 -184 110 -305t291 -121q159 0 294 79.5t214.5 218.5t79.5 306q0 186 -111 306 t-294 120q-157 0 -291 -79t-213.5 -218.5t-79.5 -306.5zM655 1669q0 135 144 135q102 0 102 -86q0 -67 -38.5 -101t-100.5 -34q-49 0 -78 21.5t-29 64.5zM1171 1669q0 135 144 135q102 0 102 -86q0 -68 -37.5 -101.5t-101.5 -33.5q-49 0 -78 21.5t-29 64.5z" />
<glyph unicode="&#xd7;" horiz-adv-x="1056" d="M92 344l320 279l-219 274l139 119l217 -277l317 281l105 -125l-324 -279l221 -276l-139 -117l-217 277l-319 -281z" />
<glyph unicode="&#xd8;" horiz-adv-x="1630" d="M92 0l4 18l160 166q-133 161 -133 402q0 231 113 422t302 298t410 107q220 0 373 -125l100 105h162l-2 -17l-170 -176q129 -164 129 -397q0 -173 -67.5 -327.5t-180.5 -262t-265.5 -170.5t-317.5 -63q-213 0 -363 116l-92 -96h-162zM338 606q0 -147 74 -260l757 784 q-104 80 -247 80q-157 0 -291 -79t-213.5 -218.5t-79.5 -306.5zM500 254q99 -74 239 -74q159 0 294 79.5t214.5 218.5t79.5 306q0 147 -72 254z" />
<glyph unicode="&#xd9;" horiz-adv-x="1562" d="M178 575l144 818h213l-142 -803q-33 -194 43 -304t266 -110q191 0 310 114t153 302l140 801h213l-144 -818q-21 -124 -74 -230t-137 -189.5t-208 -131t-275 -47.5q-191 0 -316 77.5t-171 211.5t-15 309zM715 1839h209l108 -297h-178z" />
<glyph unicode="&#xda;" horiz-adv-x="1562" d="M178 575l144 818h213l-142 -803q-33 -194 43 -304t266 -110q191 0 310 114t153 302l140 801h213l-144 -818q-21 -124 -74 -230t-137 -189.5t-208 -131t-275 -47.5q-191 0 -316 77.5t-171 211.5t-15 309zM846 1542l213 297h223l-244 -297h-192z" />
<glyph unicode="&#xdb;" horiz-adv-x="1562" d="M178 575l144 818h213l-142 -803q-33 -194 43 -304t266 -110q191 0 310 114t153 302l140 801h213l-144 -818q-21 -124 -74 -230t-137 -189.5t-208 -131t-275 -47.5q-191 0 -316 77.5t-171 211.5t-15 309zM610 1542l264 297h209l160 -297h-162l-116 189l-179 -189h-176z " />
<glyph unicode="&#xdc;" horiz-adv-x="1562" d="M178 575l144 818h213l-142 -803q-33 -194 43 -304t266 -110q191 0 310 114t153 302l140 801h213l-144 -818q-21 -124 -74 -230t-137 -189.5t-208 -131t-275 -47.5q-191 0 -316 77.5t-171 211.5t-15 309zM578 1669q0 135 143 135q102 0 102 -86q0 -67 -38.5 -101 t-100.5 -34q-49 0 -77.5 21.5t-28.5 64.5zM1094 1669q0 135 143 135q102 0 102 -86q0 -68 -37.5 -101.5t-101.5 -33.5q-49 0 -77.5 21.5t-28.5 64.5z" />
<glyph unicode="&#xdd;" horiz-adv-x="1380" d="M170 1376l2 17h229l304 -627l524 627h246l-2 -17l-687 -805l-102 -571h-213l102 569zM748 1542l213 297h223l-244 -297h-192z" />
<glyph unicode="&#xde;" horiz-adv-x="1386" d="M94 0l246 1393h213l-37 -209h391q87 0 162 -23t134 -68t92.5 -121t33.5 -175q0 -133 -47 -240.5t-127 -175t-180.5 -103.5t-212.5 -36h-412l-43 -242h-213zM383 430h375q70 0 132.5 21.5t111.5 62.5t77.5 107.5t28.5 150.5q0 112 -69 168.5t-181 56.5h-375z" />
<glyph unicode="&#xdf;" horiz-adv-x="1363" d="M4 -385l232 1305q49 273 197.5 414t375.5 141q189 0 305.5 -108t116.5 -257q0 -69 -22.5 -129t-54.5 -99t-64.5 -69.5t-55 -53t-22.5 -36.5q0 -13 31 -46.5t68 -72.5t68 -103.5t31 -133.5q0 -185 -125.5 -286t-322.5 -101q-180 0 -291 59l64 176q84 -53 196 -53 q114 0 183 57.5t69 151.5q0 43 -21.5 85.5t-52.5 75.5t-62.5 62.5t-53 57.5t-21.5 50q0 30 24.5 61.5t59.5 61.5t70 65.5t59.5 86.5t24.5 110q0 89 -60 145t-155 56q-134 0 -225 -98.5t-121 -265.5l-232 -1309h-213z" />
<glyph unicode="&#xe0;" horiz-adv-x="1339" d="M98 442q0 140 45.5 261t124 205.5t187 133t231.5 48.5q100 0 184 -37t138 -97l20 115h213l-188 -1071h-213l18 106q-140 -126 -330 -126q-198 0 -314 131t-116 331zM315 465q0 -133 76 -216t207 -83q79 0 159 35t132 84l88 497q-40 51 -106.5 86t-143.5 35 q-176 0 -294 -123.5t-118 -314.5zM608 1518h209l109 -297h-178z" />
<glyph unicode="&#xe1;" horiz-adv-x="1339" d="M98 442q0 140 45.5 261t124 205.5t187 133t231.5 48.5q100 0 184 -37t138 -97l20 115h213l-188 -1071h-213l18 106q-140 -126 -330 -126q-198 0 -314 131t-116 331zM315 465q0 -133 76 -216t207 -83q79 0 159 35t132 84l88 497q-40 51 -106.5 86t-143.5 35 q-176 0 -294 -123.5t-118 -314.5zM707 1221l213 297h223l-244 -297h-192z" />
<glyph unicode="&#xe2;" horiz-adv-x="1339" d="M98 442q0 140 45.5 261t124 205.5t187 133t231.5 48.5q100 0 184 -37t138 -97l20 115h213l-188 -1071h-213l18 106q-140 -126 -330 -126q-198 0 -314 131t-116 331zM315 465q0 -133 76 -216t207 -83q79 0 159 35t132 84l88 497q-40 51 -106.5 86t-143.5 35 q-176 0 -294 -123.5t-118 -314.5zM489 1221l265 297h209l159 -297h-161l-117 188l-178 -188h-177z" />
<glyph unicode="&#xe3;" horiz-adv-x="1339" d="M98 442q0 140 45.5 261t124 205.5t187 133t231.5 48.5q100 0 184 -37t138 -97l20 115h213l-188 -1071h-213l18 106q-140 -126 -330 -126q-198 0 -314 131t-116 331zM315 465q0 -133 76 -216t207 -83q79 0 159 35t132 84l88 497q-40 51 -106.5 86t-143.5 35 q-176 0 -294 -123.5t-118 -314.5zM471 1348q41 66 101 108.5t126 42.5q42 0 84.5 -20t71.5 -44.5t64 -44.5t63 -20q87 0 154 96l57 -92q-101 -153 -227 -153q-39 0 -81.5 20.5t-73 45t-66 45t-62.5 20.5q-84 0 -156 -97z" />
<glyph unicode="&#xe4;" horiz-adv-x="1339" d="M98 442q0 140 45.5 261t124 205.5t187 133t231.5 48.5q100 0 184 -37t138 -97l20 115h213l-188 -1071h-213l18 106q-140 -126 -330 -126q-198 0 -314 131t-116 331zM315 465q0 -133 76 -216t207 -83q79 0 159 35t132 84l88 497q-40 51 -106.5 86t-143.5 35 q-176 0 -294 -123.5t-118 -314.5zM453 1348q0 135 143 135q102 0 102 -86q0 -67 -38.5 -101t-100.5 -34q-49 0 -77.5 21.5t-28.5 64.5zM969 1348q0 135 143 135q102 0 102 -86q0 -68 -37.5 -101.5t-101.5 -33.5q-49 0 -77.5 21.5t-28.5 64.5z" />
<glyph unicode="&#xe5;" horiz-adv-x="1339" d="M98 442q0 140 45.5 261t124 205.5t187 133t231.5 48.5q100 0 184 -37t138 -97l20 115h213l-188 -1071h-213l18 106q-140 -126 -330 -126q-198 0 -314 131t-116 331zM315 465q0 -133 76 -216t207 -83q79 0 159 35t132 84l88 497q-40 51 -106.5 86t-143.5 35 q-176 0 -294 -123.5t-118 -314.5zM645 1348q0 90 68.5 157.5t158.5 67.5q73 0 121.5 -52t48.5 -124q0 -90 -68.5 -158t-158.5 -68q-75 0 -122.5 52t-47.5 125zM741 1354q0 -38 23 -63t61 -25q47 0 84 36.5t37 86.5q0 37 -24 62.5t-60 25.5q-48 0 -84.5 -36.5t-36.5 -86.5z " />
<glyph unicode="&#xe6;" horiz-adv-x="1853" d="M41 266q0 198 156 307t428 109q115 0 172 -14q26 138 -7.5 192.5t-156.5 54.5q-92 0 -190 -21t-167 -54l-6 188q188 72 408 72q69 0 120 -12.5t82 -32t50.5 -50.5t28 -61.5t12.5 -71.5q42 59 94.5 107t135 84.5t173.5 36.5q97 0 171.5 -29t119.5 -79.5t67.5 -114 t22.5 -136.5q0 -64 -17.5 -143.5t-41.5 -132.5h-719q-22 -154 37.5 -233.5t230.5 -79.5q164 0 338 118l57 -153q-201 -146 -438 -146q-146 0 -239 53.5t-129 151.5q-226 -207 -463 -207q-154 0 -242 84t-88 213zM260 297q0 -69 48 -107t132 -38q83 0 160.5 42.5t126.5 96.5 l37 207q-74 18 -170 18q-148 0 -241 -54t-93 -165zM1024 631h522q1 2 6.5 20t8 33.5t2.5 38.5q0 88 -54.5 143.5t-160.5 55.5q-125 0 -212 -85t-112 -206z" />
<glyph unicode="&#xe7;" horiz-adv-x="1157" d="M94 451q0 135 50.5 255t138 206.5t209 137t258.5 50.5q117 0 214 -39.5t160 -108.5l-123 -151q-43 43 -114 72.5t-154 29.5q-181 0 -303.5 -123.5t-122.5 -306.5q0 -136 80 -220.5t217 -84.5q155 0 295 108l80 -167q-181 -138 -410 -138h-20l-43 -98q24 6 59 6 q70 0 109 -32.5t39 -84.5q0 -82 -67.5 -125t-176.5 -43q-80 0 -145 25l32 76q75 -23 121 -23q60 0 95.5 20t35.5 60q0 55 -98 55q-71 0 -125 -14l-4 10l80 179q-169 33 -268 161.5t-99 307.5z" />
<glyph unicode="&#xe8;" horiz-adv-x="1241" d="M92 430q0 178 78.5 330.5t225.5 246t331 93.5q198 0 306 -101.5t108 -265.5q0 -66 -17.5 -144t-38.5 -124h-782q-9 -143 68 -228t231 -85q100 0 197 33.5t170 84.5l57 -161q-197 -138 -451 -138q-237 0 -360 127.5t-123 331.5zM340 631h584q14 54 14 96q0 85 -56 140 t-169 55q-137 0 -240 -84t-133 -207zM561 1518h209l109 -297h-179z" />
<glyph unicode="&#xe9;" horiz-adv-x="1241" d="M92 430q0 178 78.5 330.5t225.5 246t331 93.5q198 0 306 -101.5t108 -265.5q0 -66 -17.5 -144t-38.5 -124h-782q-9 -143 68 -228t231 -85q100 0 197 33.5t170 84.5l57 -161q-197 -138 -451 -138q-237 0 -360 127.5t-123 331.5zM340 631h584q14 54 14 96q0 85 -56 140 t-169 55q-137 0 -240 -84t-133 -207zM645 1221l213 297h223l-243 -297h-193z" />
<glyph unicode="&#xea;" horiz-adv-x="1241" d="M92 430q0 178 78.5 330.5t225.5 246t331 93.5q198 0 306 -101.5t108 -265.5q0 -66 -17.5 -144t-38.5 -124h-782q-9 -143 68 -228t231 -85q100 0 197 33.5t170 84.5l57 -161q-197 -138 -451 -138q-237 0 -360 127.5t-123 331.5zM340 631h584q14 54 14 96q0 85 -56 140 t-169 55q-137 0 -240 -84t-133 -207zM463 1221l264 297h209l160 -297h-162l-117 188l-178 -188h-176z" />
<glyph unicode="&#xeb;" horiz-adv-x="1241" d="M92 430q0 178 78.5 330.5t225.5 246t331 93.5q198 0 306 -101.5t108 -265.5q0 -66 -17.5 -144t-38.5 -124h-782q-9 -143 68 -228t231 -85q100 0 197 33.5t170 84.5l57 -161q-197 -138 -451 -138q-237 0 -360 127.5t-123 331.5zM340 631h584q14 54 14 96q0 85 -56 140 t-169 55q-137 0 -240 -84t-133 -207zM438 1348q0 135 144 135q102 0 102 -86q0 -67 -38.5 -101t-100.5 -34q-49 0 -78 21.5t-29 64.5zM954 1348q0 135 144 135q102 0 102 -86q0 -68 -37.5 -101.5t-101.5 -33.5q-49 0 -78 21.5t-29 64.5z" />
<glyph unicode="&#xec;" horiz-adv-x="575" d="M72 0l192 1071h213l-190 -1071h-215zM186 1518h209l109 -297h-178z" />
<glyph unicode="&#xed;" horiz-adv-x="575" d="M72 0l192 1071h213l-190 -1071h-215zM301 1221l213 297h223l-243 -297h-193z" />
<glyph unicode="&#xee;" horiz-adv-x="575" d="M70 1221l264 297h209l159 -297h-161l-117 188l-178 -188h-176zM72 0l192 1071h213l-190 -1071h-215z" />
<glyph unicode="&#xef;" horiz-adv-x="575" d="M41 1348q0 135 143 135q103 0 103 -86q0 -67 -39 -101t-101 -34q-49 0 -77.5 21.5t-28.5 64.5zM72 0l192 1071h213l-190 -1071h-215zM557 1348q0 135 143 135q103 0 103 -86q0 -68 -37.5 -101.5t-101.5 -33.5q-49 0 -78 21.5t-29 64.5z" />
<glyph unicode="&#xf0;" horiz-adv-x="1277" d="M94 393q0 238 142.5 386.5t369.5 148.5q65 0 123 -18t100 -49t71 -62t52 -66q4 50 4 76q0 215 -127 369l-135 -121l-51 55l133 121q-70 64 -155 96l106 146q105 -26 203 -105l133 121l53 -53l-131 -119q86 -93 136 -220.5t50 -275.5q0 -139 -30 -266.5t-88 -232 t-138 -182t-186 -120t-227 -42.5q-180 0 -294 116.5t-114 296.5zM309 416q0 -104 58 -172t159 -68q145 0 245.5 102t146.5 263q-17 35 -40.5 67t-59 67t-86 56t-107.5 21q-139 0 -227.5 -89.5t-88.5 -246.5z" />
<glyph unicode="&#xf1;" horiz-adv-x="1335" d="M74 0l188 1071h211l-29 -164q162 183 390 183q138 0 223 -64t111 -172t1 -250l-106 -604h-213l102 584q26 142 -25.5 225.5t-183.5 83.5q-116 0 -204 -66.5t-138 -164.5l-116 -662h-211zM451 1348q41 66 101 108.5t126 42.5q42 0 84.5 -20t71.5 -44.5t64 -44.5t63 -20 q86 0 153 96l57 -92q-101 -153 -227 -153q-39 0 -81.5 20.5t-72.5 45t-65.5 45t-62.5 20.5q-84 0 -156 -97z" />
<glyph unicode="&#xf2;" d="M92 449q0 183 87 333t236 234t328 84q215 0 347.5 -134t132.5 -348q0 -137 -51 -258t-138 -206t-208 -134t-257 -49q-212 0 -344.5 133t-132.5 345zM301 469q0 -130 79.5 -215.5t211.5 -85.5q179 0 300.5 123.5t121.5 306.5q0 132 -79.5 218.5t-213.5 86.5 q-174 0 -297 -125.5t-123 -308.5zM578 1518h208l109 -297h-178z" />
<glyph unicode="&#xf3;" d="M92 449q0 183 87 333t236 234t328 84q215 0 347.5 -134t132.5 -348q0 -137 -51 -258t-138 -206t-208 -134t-257 -49q-212 0 -344.5 133t-132.5 345zM301 469q0 -130 79.5 -215.5t211.5 -85.5q179 0 300.5 123.5t121.5 306.5q0 132 -79.5 218.5t-213.5 86.5 q-174 0 -297 -125.5t-123 -308.5zM719 1221l213 297h223l-244 -297h-192z" />
<glyph unicode="&#xf4;" d="M92 449q0 183 87 333t236 234t328 84q215 0 347.5 -134t132.5 -348q0 -137 -51 -258t-138 -206t-208 -134t-257 -49q-212 0 -344.5 133t-132.5 345zM301 469q0 -130 79.5 -215.5t211.5 -85.5q179 0 300.5 123.5t121.5 306.5q0 132 -79.5 218.5t-213.5 86.5 q-174 0 -297 -125.5t-123 -308.5zM504 1221l264 297h209l160 -297h-162l-117 188l-178 -188h-176z" />
<glyph unicode="&#xf5;" d="M92 449q0 183 87 333t236 234t328 84q215 0 347.5 -134t132.5 -348q0 -137 -51 -258t-138 -206t-208 -134t-257 -49q-212 0 -344.5 133t-132.5 345zM301 469q0 -130 79.5 -215.5t211.5 -85.5q179 0 300.5 123.5t121.5 306.5q0 132 -79.5 218.5t-213.5 86.5 q-174 0 -297 -125.5t-123 -308.5zM502 1348q41 66 101 108.5t126 42.5q42 0 84.5 -20t71.5 -44.5t64 -44.5t63 -20q86 0 153 96l58 -92q-101 -153 -228 -153q-39 0 -81.5 20.5t-72.5 45t-65.5 45t-62.5 20.5q-84 0 -156 -97z" />
<glyph unicode="&#xf6;" d="M92 449q0 183 87 333t236 234t328 84q215 0 347.5 -134t132.5 -348q0 -137 -51 -258t-138 -206t-208 -134t-257 -49q-212 0 -344.5 133t-132.5 345zM301 469q0 -130 79.5 -215.5t211.5 -85.5q179 0 300.5 123.5t121.5 306.5q0 132 -79.5 218.5t-213.5 86.5 q-174 0 -297 -125.5t-123 -308.5zM438 1348q0 135 144 135q102 0 102 -86q0 -67 -38.5 -101t-100.5 -34q-49 0 -78 21.5t-29 64.5zM954 1348q0 135 144 135q102 0 102 -86q0 -68 -37.5 -101.5t-101.5 -33.5q-49 0 -78 21.5t-29 64.5z" />
<glyph unicode="&#xf7;" horiz-adv-x="1181" d="M113 535l30 170h930l-31 -170h-929zM383 211q0 75 42.5 118.5t115.5 43.5q54 0 82 -28t28 -79q0 -75 -41.5 -117.5t-115.5 -42.5q-54 0 -82.5 27.5t-28.5 77.5zM516 969q0 75 42 118t114 43q54 0 84 -28t30 -78q0 -75 -42.5 -117.5t-116.5 -42.5q-54 0 -82.5 27t-28.5 78 z" />
<glyph unicode="&#xf8;" d="M92 449q0 183 87 333t236 234t328 84q187 0 316 -107l76 78h116l-4 -18l-123 -127q99 -130 99 -308q0 -137 -51 -258t-138 -206t-208 -134t-257 -49q-170 0 -290 88l-58 -59h-117l5 18l100 103q-117 130 -117 328zM301 469q0 -116 59 -193l549 564q-79 63 -188 63 q-174 0 -297 -125.5t-123 -308.5zM428 213q70 -45 164 -45q179 0 300.5 123.5t121.5 306.5q0 94 -45 170z" />
<glyph unicode="&#xf9;" horiz-adv-x="1335" d="M141 467l107 604h213l-103 -584q-26 -143 26 -226t187 -83q113 0 201.5 67t136.5 165l117 661h211l-188 -1071h-211l28 164q-161 -182 -389 -182q-138 0 -223 64t-111.5 171.5t-1.5 249.5zM545 1518h209l108 -297h-178z" />
<glyph unicode="&#xfa;" horiz-adv-x="1335" d="M141 467l107 604h213l-103 -584q-26 -143 26 -226t187 -83q113 0 201.5 67t136.5 165l117 661h211l-188 -1071h-211l28 164q-161 -182 -389 -182q-138 0 -223 64t-111.5 171.5t-1.5 249.5zM688 1221l213 297h223l-243 -297h-193z" />
<glyph unicode="&#xfb;" horiz-adv-x="1335" d="M141 467l107 604h213l-103 -584q-26 -143 26 -226t187 -83q113 0 201.5 67t136.5 165l117 661h211l-188 -1071h-211l28 164q-161 -182 -389 -182q-138 0 -223 64t-111.5 171.5t-1.5 249.5zM446 1221l265 297h209l159 -297h-161l-117 188l-178 -188h-177z" />
<glyph unicode="&#xfc;" horiz-adv-x="1335" d="M141 467l107 604h213l-103 -584q-26 -143 26 -226t187 -83q113 0 201.5 67t136.5 165l117 661h211l-188 -1071h-211l28 164q-161 -182 -389 -182q-138 0 -223 64t-111.5 171.5t-1.5 249.5zM412 1348q0 135 143 135q102 0 102 -86q0 -67 -38.5 -101t-100.5 -34 q-49 0 -77.5 21.5t-28.5 64.5zM928 1348q0 135 143 135q103 0 103 -86q0 -68 -38 -101.5t-102 -33.5q-49 0 -77.5 21.5t-28.5 64.5z" />
<glyph unicode="&#xfd;" horiz-adv-x="1230" d="M-102 -332l61 168q86 -59 197 -59q78 0 129 40.5t106 131.5l39 69l-301 1053h227l199 -838l465 838h225l-657 -1132q-41 -71 -74.5 -120.5t-75.5 -95t-85.5 -72t-99.5 -42t-122 -15.5q-68 0 -130.5 22.5t-102.5 51.5zM612 1221l213 297h224l-244 -297h-193z" />
<glyph unicode="&#xfe;" horiz-adv-x="1343" d="M6 -385l324 1839h213l-86 -487q143 123 344 123q126 0 223 -61.5t148 -166t51 -233.5q0 -190 -78.5 -338.5t-215.5 -229.5t-308 -81q-106 0 -186 38t-128 103l-88 -506h-213zM338 287q38 -50 105 -85.5t147 -35.5q178 0 293.5 124t115.5 318q0 132 -74 213.5t-204 81.5 q-79 0 -159 -36.5t-138 -88.5z" />
<glyph unicode="&#xff;" horiz-adv-x="1230" d="M-102 -332l61 168q86 -59 197 -59q78 0 129 40.5t106 131.5l39 69l-301 1053h227l199 -838l465 838h225l-657 -1132q-41 -71 -74.5 -120.5t-75.5 -95t-85.5 -72t-99.5 -42t-122 -15.5q-68 0 -130.5 22.5t-102.5 51.5zM354 1348q0 135 144 135q102 0 102 -86 q0 -67 -38.5 -101t-100.5 -34q-49 0 -78 21.5t-29 64.5zM870 1348q0 135 144 135q102 0 102 -86q0 -68 -37.5 -101.5t-101.5 -33.5q-49 0 -78 21.5t-29 64.5z" />
<glyph unicode="&#x152;" horiz-adv-x="2344" d="M121 573q0 173 67 329.5t179.5 267.5t264.5 176t316 65q211 0 355 -125l18 107h1049l-33 -189h-844l-72 -397h701l-31 -174h-700l-78 -447h846l-35 -186h-1049l19 102q-199 -125 -398 -125q-171 0 -303 79t-202 214t-70 303zM330 606q0 -185 113 -306.5t300 -121.5 q106 0 208.5 40t181.5 108l129 735q-56 70 -142.5 110.5t-195.5 40.5q-160 0 -296.5 -79.5t-217 -219t-80.5 -307.5z" />
<glyph unicode="&#x153;" horiz-adv-x="2189" d="M94 449q0 137 50 258t136 207t205.5 136t253.5 50q164 0 278 -83t152 -220q80 137 217.5 220t301.5 83q100 0 179 -30.5t127 -82.5t72.5 -118t24.5 -142q0 -61 -17.5 -134.5t-41.5 -127.5h-775q-16 -151 55.5 -232t256.5 -81q90 0 183.5 33.5t166.5 84.5l57 -164 q-198 -135 -450 -135q-360 0 -436 287q-84 -134 -222 -210.5t-301 -76.5q-213 0 -343 136.5t-130 341.5zM303 469q0 -131 79.5 -217t211.5 -86q177 0 299.5 125.5t122.5 306.5q0 132 -79.5 218.5t-213.5 86.5q-175 0 -297.5 -126.5t-122.5 -307.5zM1288 631h590q16 50 16 94 q0 88 -65.5 142.5t-173.5 54.5q-134 0 -233.5 -81t-133.5 -210z" />
<glyph unicode="&#x178;" horiz-adv-x="1380" d="M170 1376l2 17h229l304 -627l524 627h246l-2 -17l-687 -805l-102 -571h-213l102 569zM467 1669q0 135 143 135q103 0 103 -86q0 -67 -39 -101t-101 -34q-49 0 -77.5 21.5t-28.5 64.5zM983 1669q0 135 143 135q103 0 103 -86q0 -68 -37.5 -101.5t-101.5 -33.5 q-49 0 -78 21.5t-29 64.5z" />
<glyph unicode="&#x2c6;" horiz-adv-x="1191" d="M508 1221l264 297h209l160 -297h-162l-117 188l-178 -188h-176z" />
<glyph unicode="&#x2dc;" horiz-adv-x="1191" d="M489 1348q41 66 101.5 108.5t126.5 42.5q42 0 84.5 -20t71 -44.5t63.5 -44.5t63 -20q87 0 154 96l57 -92q-101 -153 -227 -153q-39 0 -81.5 20.5t-73 45t-66 45t-62.5 20.5q-83 0 -155 -97z" />
<glyph unicode="&#x2000;" horiz-adv-x="919" />
<glyph unicode="&#x2001;" horiz-adv-x="1839" />
<glyph unicode="&#x2002;" horiz-adv-x="919" />
<glyph unicode="&#x2003;" horiz-adv-x="1839" />
<glyph unicode="&#x2004;" horiz-adv-x="613" />
<glyph unicode="&#x2005;" horiz-adv-x="459" />
<glyph unicode="&#x2006;" horiz-adv-x="306" />
<glyph unicode="&#x2007;" horiz-adv-x="306" />
<glyph unicode="&#x2008;" horiz-adv-x="229" />
<glyph unicode="&#x2009;" horiz-adv-x="367" />
<glyph unicode="&#x200a;" horiz-adv-x="102" />
<glyph unicode="&#x2010;" horiz-adv-x="1081" d="M143 535l31 170h768l-29 -170h-770z" />
<glyph unicode="&#x2011;" horiz-adv-x="1081" d="M143 535l31 170h768l-29 -170h-770z" />
<glyph unicode="&#x2012;" horiz-adv-x="1081" d="M143 535l31 170h768l-29 -170h-770z" />
<glyph unicode="&#x2013;" horiz-adv-x="1269" d="M143 535l31 170h956l-30 -170h-957z" />
<glyph unicode="&#x2014;" horiz-adv-x="1746" d="M143 535l31 170h1434l-31 -170h-1434z" />
<glyph unicode="&#x2018;" horiz-adv-x="544" d="M182 924q0 89 78 242t152 247l112 -51l-137 -275q43 -9 65.5 -38.5t22.5 -69.5q0 -80 -46.5 -128t-125.5 -48q-57 0 -89 33t-32 88z" />
<glyph unicode="&#x2019;" horiz-adv-x="540" d="M193 848l139 276q-42 7 -64 36.5t-22 70.5q0 82 45.5 130t124.5 48q58 0 90.5 -33.5t32.5 -87.5q0 -89 -78.5 -239t-155.5 -250z" />
<glyph unicode="&#x201a;" horiz-adv-x="559" d="M-2 -301l139 276q-42 7 -64 36.5t-22 70.5q0 82 45.5 130t124.5 48q58 0 90.5 -33.5t32.5 -87.5q0 -89 -78.5 -239t-154.5 -250z" />
<glyph unicode="&#x201c;" horiz-adv-x="917" d="M188 956q0 84 73.5 228.5t141.5 228.5l99 -43l-129 -264q40 -7 60 -33t20 -63q0 -74 -41.5 -118t-114.5 -44q-53 0 -81 29.5t-28 78.5zM590 956q0 83 72 226t139 231l100 -43l-131 -264q41 -7 61.5 -33t20.5 -63q0 -74 -41.5 -118t-112.5 -44q-52 0 -80 29.5t-28 78.5z " />
<glyph unicode="&#x201d;" horiz-adv-x="913" d="M199 891l131 262q-40 7 -61 34t-21 64q0 73 41 116.5t114 43.5q51 0 79 -30t28 -78q0 -82 -72 -226t-139 -231zM598 891l131 262q-40 7 -61 34t-21 64q0 74 42 117t114 43q52 0 81 -30t29 -78q0 -81 -73.5 -224.5t-141.5 -232.5z" />
<glyph unicode="&#x201e;" horiz-adv-x="933" d="M0 -307l129 264q-39 6 -59.5 32.5t-20.5 63.5q0 74 40.5 118t111.5 44q54 0 82 -30t28 -79q0 -82 -72 -222.5t-141 -233.5zM397 -307l131 264q-40 6 -61 32.5t-21 63.5q0 74 42.5 118t115.5 44q51 0 79 -30t28 -79q0 -83 -72.5 -225t-140.5 -231z" />
<glyph unicode="&#x2022;" horiz-adv-x="794" d="M186 569q0 125 66.5 196t183.5 71q83 0 128.5 -45t45.5 -125q0 -125 -67 -195t-185 -70q-84 0 -128 44t-44 124z" />
<glyph unicode="&#x2026;" horiz-adv-x="1513" d="M51 74q0 78 43 123t119 45q55 0 86 -29t31 -80q0 -77 -44.5 -120.5t-119.5 -43.5q-115 0 -115 105zM537 74q0 78 42 123t117 45q55 0 86 -29t31 -80q0 -77 -44.5 -120.5t-119.5 -43.5q-112 0 -112 105zM1020 74q0 78 42.5 123t117.5 45q55 0 85.5 -29t30.5 -80 q0 -77 -43.5 -120.5t-117.5 -43.5q-115 0 -115 105z" />
<glyph unicode="&#x202f;" horiz-adv-x="367" />
<glyph unicode="&#x2039;" horiz-adv-x="645" d="M106 596l9 45l391 412h16l70 -56l-301 -385l166 -387l-88 -41h-17z" />
<glyph unicode="&#x203a;" horiz-adv-x="645" d="M59 242l297 387l-163 383l86 41h18l244 -412l-6 -45l-392 -412h-18z" />
<glyph unicode="&#x205f;" horiz-adv-x="459" />
<glyph unicode="&#x20ac;" horiz-adv-x="1257" d="M94 487l25 134h90q7 78 14 124h-84l25 134h88q71 252 239 393t400 141q225 0 366 -162l-104 -155q-106 121 -268 121q-143 0 -250 -86.5t-162 -251.5h553l-86 -134h-498q-12 -77 -14 -124h440l-77 -134h-363q9 -152 78 -231.5t186 -79.5q163 0 326 113l51 -176 q-199 -133 -414 -133q-200 0 -319.5 134.5t-128.5 372.5h-113z" />
<glyph unicode="&#x2122;" horiz-adv-x="1660" d="M242 1237l22 121h518l-22 -121h-197l-88 -506h-121l88 506h-200zM823 731l111 627h100l185 -295l288 295h109l-111 -627h-121l78 438l-256 -266h-22l-162 266l-78 -438h-121z" />
<glyph unicode="&#xe000;" horiz-adv-x="1075" d="M0 0v1075h1075v-1075h-1075z" />
<glyph unicode="&#xfb01;" horiz-adv-x="1466" d="M115 -385l217 1229h-205l31 170h202l17 88q14 80 43 146t75 118t115 80.5t156 28.5q81 0 153.5 -29t114.5 -66l-80 -170q-86 76 -180 76q-154 0 -184 -184l-17 -88h349l-31 -170h-346l-217 -1229h-213zM969 0l192 1071h213l-190 -1071h-215zM1190 1350q0 141 153 141 q50 0 80.5 -22.5t30.5 -67.5q0 -141 -151 -141q-113 0 -113 90z" />
<glyph unicode="&#xfb02;" horiz-adv-x="1552" d="M115 -385l217 1229h-205l31 170h202l17 88q14 80 43 146t75 118t115 80.5t156 28.5q81 0 153.5 -29t114.5 -66l-80 -170q-86 76 -180 76q-154 0 -184 -184l-17 -88h349l-31 -170h-346l-217 -1229h-213zM1012 256l211 1198h213l-205 -1159q-21 -133 76 -133q63 0 129 37 l-15 -174q-96 -45 -213 -45q-112 0 -166.5 66t-29.5 210z" />
</font>
</defs>
</svg>
